<?xml version="1.0" encoding="UTF-8"?>
<!-- Generator: visioncortex VTracer 0.6.4 -->
<svg version="1.1" xmlns="http://www.w3.org/2000/svg" width="1024" height="1024">
<path d="M0 0 C337.92 0 675.84 0 1024 0 C1024 337.92 1024 675.84 1024 1024 C686.08 1024 348.16 1024 0 1024 C0 686.08 0 348.16 0 0 Z " fill="#93DDEC" transform="translate(0,0)"/>
<path d="M0 0 C337.92 0 675.84 0 1024 0 C1024 337.92 1024 675.84 1024 1024 C686.08 1024 348.16 1024 0 1024 C0 686.08 0 348.16 0 0 Z M319.17 125.22 C315.94 127.03 312.65 128.65 309.31 130.25 C284.63 142.51 261.44 158.86 240.14 176.27 C237.18 178.67 234.14 180.96 231.11 183.26 C228.57 185.36 226.32 187.66 224 190 C222.1 191.8 220.19 193.58 218.28 195.37 C200.76 211.59 200.76 211.59 185.02 229.48 C183.03 231.96 180.93 234.25 178.75 236.56 C172.69 243.21 167.65 250.62 162.46 257.95 C160.64 260.5 158.76 263 156.88 265.5 C151.42 273.01 146.73 281.02 142 289 C141.53 289.79 141.05 290.58 140.56 291.4 C133.99 302.4 128.07 313.65 122.5 325.19 C122.2 325.8 121.9 326.42 121.6 327.05 C118.12 334.27 114.84 341.51 112 349 C111.73 349.71 111.45 350.43 111.17 351.17 C100.64 378.81 92.63 406.54 87.42 435.68 C87.04 437.78 86.63 439.87 86.2 441.96 C81.87 463.98 80.72 486.3 80.75 508.69 C80.75 509.55 80.75 510.41 80.75 511.29 C80.8 530.85 81.69 550.12 84.42 569.5 C84.81 572.33 85.19 575.15 85.56 577.98 C87.05 588.89 89.14 599.36 92 610 C92.44 611.85 92.86 613.7 93.28 615.55 C96.21 628.2 99.97 640.5 104.06 652.81 C104.45 653.97 104.45 653.97 104.84 655.15 C107.78 664.02 110.96 672.56 115 681 C115.89 682.97 116.77 684.94 117.66 686.92 C127.06 707.74 137.5 727.86 150 747 C150.65 748.02 151.3 749.03 151.97 750.08 C157.58 758.69 163.76 766.85 170 775 C170.47 775.62 170.95 776.24 171.44 776.89 C177.07 784.27 182.93 791.31 189.3 798.09 C191.29 800.24 193.21 802.4 195.11 804.63 C199.49 809.65 204.2 814.35 208.92 819.05 C210.43 820.56 211.95 822.08 213.46 823.6 C218.8 828.94 224.22 834.13 230 839 C230.93 839.8 231.85 840.59 232.81 841.41 C235.85 843.97 238.91 846.5 242 849 C242.59 849.48 243.18 849.95 243.78 850.44 C268.57 870.35 296.36 887.27 325 901 C326.33 901.67 327.67 902.35 329 903.02 C335.13 906.09 341.45 908.58 347.88 910.94 C352.11 912.5 356.29 914.07 360.38 916 C385.32 927.3 414.15 933.46 441 938 C443.36 938.42 445.73 938.84 448.09 939.26 C468.07 942.51 488.09 943.38 508.31 943.31 C509.44 943.31 510.57 943.31 511.73 943.31 C554.8 943.19 596.63 937.15 638 925 C639.24 924.64 640.48 924.28 641.76 923.9 C647.35 922.23 652.67 920.38 658 918 C659.87 917.29 661.75 916.58 663.62 915.88 C706.52 899.43 749.09 877.21 784 847 C785.19 845.98 786.38 844.97 787.57 843.95 C791.41 840.66 795.21 837.34 799 834 C799.95 833.16 800.91 832.32 801.89 831.46 C808.69 825.35 815.19 818.94 821.69 812.5 C822.57 811.63 823.45 810.77 824.35 809.88 C829.58 804.66 834.38 799.26 838.99 793.5 C841.1 790.88 843.28 788.34 845.5 785.82 C893.24 731.4 922.77 660.51 936 590 C936.27 588.59 936.27 588.59 936.55 587.16 C947.58 528.9 948.03 461.39 930.02 404.41 C928.95 400.82 928.06 397.21 927.2 393.57 C925.2 385.42 922.69 377.49 919.94 369.56 C919.7 368.88 919.47 368.2 919.22 367.49 C911.55 345.32 901.75 324.07 890.39 303.55 C888.14 299.42 886.07 295.22 884 291 C883.34 291 882.68 291 882 291 C881.74 290.12 881.48 289.24 881.21 288.34 C880.01 285.03 878.6 282.53 876.66 279.62 C875.99 278.62 875.33 277.63 874.64 276.6 C873.94 275.56 873.23 274.51 872.5 273.44 C871.78 272.36 871.05 271.29 870.31 270.18 C865.81 263.54 861.2 257.07 856.21 250.8 C853.94 247.92 851.78 244.97 849.62 242 C845.43 236.38 840.81 231.29 835.99 226.2 C833.87 223.97 831.85 221.67 829.85 219.33 C825.49 214.32 820.79 209.64 816.08 204.95 C814.57 203.44 813.05 201.92 811.54 200.4 C806.2 195.06 800.76 189.89 795 185 C794.01 184.13 793.03 183.26 792.01 182.37 C783.7 175.18 774.95 168.77 765.99 162.42 C763.52 160.66 761.11 158.83 758.69 157 C727.13 134.11 691.44 117.41 655 104 C654.07 103.65 653.15 103.31 652.19 102.95 C621.39 91.54 589.5 85.74 557 82 C555.86 81.87 554.71 81.73 553.54 81.59 C475.89 72.89 387.83 86.54 319.17 125.22 Z " fill="#FBFEFE" transform="translate(0,0)"/>
<path d="M0 0 C3 0 3 0 4.54 1.32 C7.7 5.06 9.81 8.13 11 13 C12.9 13.03 14.79 13.05 16.69 13.06 C18.27 13.08 18.27 13.08 19.89 13.1 C22.77 13.01 25.24 12.85 28 12 C29.74 9.1 29.74 9.1 31 6 C31.66 5.34 32.32 4.68 33 4 C36.85 4 38.53 5.41 41.12 8 C45.5 12.06 50.25 11.98 56 12 C56.33 8.7 56.66 5.4 57 2 C60 3 60 3 61.69 6.31 C63 10 63 10 63 14 C70.92 13.5 70.92 13.5 79 13 C79.33 11.35 79.66 9.7 80 8 C83 6 83 6 85.62 6.25 C86.8 6.62 86.8 6.62 88 7 C88.33 7.66 88.66 8.32 89 9 C97.77 11.53 106.97 11.22 116 11 C115.67 10.01 115.34 9.02 115 8 C116.91 6.01 118.42 5.07 121.16 4.73 C127.43 4.62 127.43 4.62 131 7 C131.66 8.32 132.32 9.64 133 11 C137.62 11 142.24 11 147 11 C147.41 9.87 147.83 8.73 148.25 7.56 C150 4 150 4 152.19 3.06 C152.79 3.04 153.38 3.02 154 3 C155.72 6.3 157.29 9.33 158 13 C159.49 12.5 159.49 12.5 161 12 C161.33 11.01 161.66 10.02 162 9 C163.98 9.5 163.98 9.5 166 10 C166 10.66 166 11.32 166 12 C167.44 11.89 168.88 11.76 170.31 11.62 C171.11 11.56 171.91 11.49 172.74 11.41 C175.27 11.1 175.27 11.1 178 9 C179.01 6.82 179.01 6.82 179.69 4.38 C179.94 3.56 180.19 2.74 180.45 1.9 C180.63 1.27 180.81 0.65 181 0 C184.77 1.75 186.71 3.45 189 7 C189.75 10.81 189.75 10.81 190 14 C196.87 13.11 200.09 12.05 205 7 C207.75 7.12 207.75 7.12 211 8 C212.58 8.19 214.16 8.35 215.75 8.5 C218.2 8.73 219.79 8.89 222 10 C224.84 10.23 227.66 10.4 230.51 10.54 C231.35 10.58 232.19 10.62 233.06 10.67 C235.74 10.8 238.43 10.93 241.12 11.06 C242.95 11.15 244.77 11.25 246.59 11.34 C251.06 11.56 255.53 11.78 260 12 C260 11.34 260 10.68 260 10 C261 9 262 8 263 7 C263.33 6.01 263.66 5.02 264 4 C264.99 4 265.98 4 267 4 C267.66 6.31 268.32 8.62 269 11 C270.46 11.03 271.92 11.05 273.38 11.06 C274.59 11.08 274.59 11.08 275.84 11.1 C278.05 11.14 278.05 11.14 280 10 C282.37 9.93 284.75 9.92 287.12 9.94 C288.41 9.95 289.69 9.96 291.01 9.96 C292.49 9.98 292.49 9.98 294 10 C294.33 7.69 294.66 5.38 295 3 C295.66 3 296.32 3 297 3 C300.03 9.3 300.03 9.3 299.93 11.88 C298.52 15.1 296.11 17.28 293.62 19.69 C293.09 20.22 292.55 20.75 291.99 21.29 C287.76 25.4 283.3 29.15 278.68 32.81 C276 35 273.51 37.31 271 39.69 C263.22 46.83 254.61 52.9 246 59 C245.38 59.44 244.75 59.89 244.11 60.34 C214.22 81.39 181.2 98.24 147 111 C146.3 111.27 145.6 111.53 144.88 111.8 C140.77 113.36 136.65 114.81 132.47 116.16 C130.5 116.83 128.55 117.58 126.61 118.35 C120.46 120.66 114.1 122.26 107.75 123.94 C107.09 124.11 106.42 124.29 105.74 124.47 C95.31 127.23 84.86 129.74 74.23 131.61 C72.77 131.86 71.32 132.13 69.87 132.4 C17.09 142.3 -38.56 140.53 -91 130 C-91.91 129.82 -92.82 129.64 -93.75 129.45 C-102.1 127.74 -110.29 125.75 -118.41 123.12 C-122.11 121.97 -125.83 120.92 -129.58 119.89 C-139.61 117.09 -149.33 113.88 -159 110 C-160.11 109.56 -161.22 109.11 -162.37 108.65 C-167.37 106.61 -172.24 104.43 -177.04 101.95 C-179.17 100.92 -181.34 100.09 -183.56 99.25 C-189.33 97 -194.67 94.06 -200.09 91.1 C-202.98 89.53 -205.89 88.05 -208.84 86.61 C-232.18 74.99 -254.52 60 -274.48 43.26 C-275.9 42.09 -277.34 40.94 -278.79 39.79 C-287.3 33.03 -295.17 25.54 -303 18 C-303.85 17.22 -303.85 17.22 -304.71 16.43 C-306 15 -306 15 -306 12.88 C-305.86 12.11 -305.71 11.35 -305.56 10.56 C-304.88 6.94 -305.08 5.18 -307 2 C-300.14 1.57 -295.54 4.15 -290 8 C-288.36 9.92 -287.28 11.81 -286 14 C-283.88 14.95 -283.88 14.95 -282 15 C-281.57 14.14 -281.57 14.14 -281.13 13.27 C-279.42 9.84 -277.71 6.42 -276 3 C-271.82 4.81 -270.73 6.77 -269 11 C-269 11.99 -269 12.98 -269 14 C-264.71 14 -260.42 14 -256 14 C-255.34 12.68 -254.68 11.36 -254 10 C-252.19 7.69 -252.19 7.69 -250 6 C-247.25 6.25 -247.25 6.25 -245 7 C-244.5 8.98 -244.5 8.98 -244 11 C-242.35 11 -240.7 11 -239 11 C-238.61 9.91 -238.22 8.81 -237.81 7.69 C-236.48 3.98 -234.42 2.82 -231 1 C-230.76 1.92 -230.52 2.83 -230.27 3.77 C-229.76 5.56 -229.76 5.56 -229.25 7.38 C-228.76 9.15 -228.76 9.15 -228.27 10.96 C-227.29 14.09 -227.29 14.09 -224.86 15.41 C-224.25 15.61 -223.63 15.8 -223 16 C-223 14.68 -223 13.36 -223 12 C-221.02 12.66 -219.04 13.32 -217 14 C-216.01 9.71 -215.02 5.42 -214 1 C-213.01 1 -212.02 1 -211 1 C-208.9 3.43 -207.09 6.01 -205.23 8.62 C-201.83 12.25 -198.66 12.9 -193.79 13.2 C-192.22 13.16 -192.22 13.16 -190.62 13.12 C-189.04 13.1 -189.04 13.1 -187.41 13.07 C-186.22 13.04 -186.22 13.04 -185 13 C-184.67 9.37 -184.34 5.74 -184 2 C-180 3 -180 3 -178 6 C-175.94 6.72 -175.94 6.72 -174 7 C-173.67 6.01 -173.34 5.02 -173 4 C-172.34 4 -171.68 4 -171 4 C-170.67 3.01 -170.34 2.02 -170 1 C-169.01 1 -168.02 1 -167 1 C-164.88 4.53 -164.47 7.94 -164 12 C-162.11 12.04 -162.11 12.04 -160 11 C-158.4 8.76 -157.25 6.46 -156 4 C-152.12 5.75 -152.12 5.75 -151 8 C-150.96 10 -150.96 12 -151 14 C-145.39 13.59 -145.39 13.59 -140.31 11.44 C-133.03 8.28 -124.52 9.58 -117.01 11.55 C-113.96 12.23 -111.11 12.13 -108 12 C-107.01 9.36 -106.02 6.72 -105 4 C-103.02 4.5 -103.02 4.5 -101 5 C-101 6.32 -101 7.64 -101 9 C-92.34 11.89 -83.48 9.43 -75 7 C-73.67 6.66 -72.34 6.33 -71 6 C-71 8.31 -71 10.62 -71 13 C-69.02 13.66 -67.04 14.32 -65 15 C-65.03 13.79 -65.03 13.79 -65.06 12.56 C-65 10 -65 10 -64 9 C-61.67 8.96 -59.33 8.96 -57 9 C-57 9.66 -57 10.32 -57 11 C-55.54 11.05 -54.08 11.09 -52.62 11.12 C-51.41 11.16 -51.41 11.16 -50.16 11.2 C-47.79 11.21 -47.79 11.21 -46 9 C-45.76 7.02 -45.76 7.02 -45.88 4.88 C-45.94 2.96 -45.94 2.96 -46 1 C-41.11 1.42 -39.3 3.54 -36 7 C-33.83 8.3 -33.83 8.3 -32 9 C-32 9.66 -32 10.32 -32 11 C-30.68 11 -29.36 11 -28 11 C-28 9.68 -28 8.36 -28 7 C-26.02 6.67 -24.04 6.34 -22 6 C-21.44 6.87 -21.44 6.87 -20.86 7.75 C-20.35 8.49 -19.84 9.24 -19.31 10 C-18.81 10.74 -18.31 11.49 -17.8 12.25 C-16.09 14.28 -16.09 14.28 -13.29 14.25 C-12.54 14.17 -11.78 14.09 -11 14 C-10.34 12.68 -9.68 11.36 -9 10 C-8.13 10.96 -8.13 10.96 -7.25 11.94 C-4.99 14.34 -4.99 14.34 -1 15 C-0.67 10.05 -0.34 5.1 0 0 Z " fill="#8D9089" transform="translate(516,805)"/>
<path d="M0 0 C6.87 3.89 10.54 9.07 14 16 C14.92 29.07 13.34 37.55 4.89 47.9 C2.59 50.46 0.13 52.66 -2.51 54.86 C-5.89 57.77 -9.13 60.82 -12.38 63.88 C-16.53 67.77 -20.69 71.65 -24.94 75.44 C-29.36 79.39 -33.68 83.44 -38 87.5 C-43.06 92.26 -48.16 96.98 -53.36 101.6 C-55.53 103.57 -57.67 105.57 -59.8 107.59 C-60.47 108.22 -61.15 108.86 -61.84 109.51 C-63.17 110.77 -64.5 112.04 -65.82 113.3 C-66.44 113.88 -67.05 114.46 -67.68 115.06 C-68.5 115.84 -68.5 115.84 -69.33 116.63 C-71.12 118.1 -72.9 119.04 -75 120 C-73.05 133.75 -70.67 147.37 -68 161 C-67.41 164.02 -66.83 167.04 -66.25 170.06 C-66.01 171.31 -65.77 172.56 -65.52 173.85 C-65 177 -65 177 -65 181 C-64.17 180.5 -63.35 180.01 -62.5 179.5 C-58.47 177.77 -55.26 176.91 -51 178 C-46.11 180.83 -40.99 184.56 -39 190 C-38.03 194.79 -38.03 194.79 -39 198 C-42.9 203.5 -47.69 207.89 -53 212 C-53.09 211.44 -53.17 210.89 -53.26 210.31 C-54.35 204.42 -56.24 199.72 -60 195 C-60.66 194.67 -61.32 194.34 -62 194 C-61.15 198.71 -60.29 203.42 -59.44 208.12 C-59.31 208.85 -59.17 209.58 -59.04 210.33 C-57.42 219.23 -55.8 228.12 -54.15 237.02 C-53.99 237.85 -53.84 238.68 -53.68 239.53 C-52.94 243.55 -52.2 247.56 -51.45 251.58 C-50.05 259.12 -48.71 266.68 -47.48 274.25 C-46.44 280.63 -45.21 286.94 -43.82 293.25 C-42.27 300.33 -40.88 307.44 -39.47 314.54 C-38.94 317.19 -38.4 319.85 -37.87 322.5 C-31.95 352.09 -31.95 352.09 -33 357 C-35.5 359.56 -35.5 359.56 -38 361 C-41.07 359.64 -43.07 358.14 -45.36 355.69 C-46.28 354.7 -46.28 354.7 -47.23 353.69 C-48.2 352.64 -48.2 352.64 -49.19 351.56 C-50.19 350.48 -50.19 350.48 -51.21 349.38 C-55.71 344.5 -59.96 339.5 -64.09 334.31 C-66.3 331.64 -68.7 329.27 -71.19 326.88 C-73.45 324.53 -75.46 322.04 -77.5 319.5 C-80.6 315.65 -83.78 312.1 -87.33 308.66 C-89.73 306.27 -91.92 303.72 -94.13 301.16 C-99.35 295.14 -104.76 289.27 -110.12 283.38 C-112.93 280.3 -115.71 277.21 -118.44 274.06 C-121.87 270.11 -125.41 266.27 -128.96 262.42 C-131.49 259.67 -133.99 256.89 -136.44 254.06 C-139.44 250.59 -142.56 247.23 -145.69 243.88 C-150.02 239.22 -154.2 234.47 -158.31 229.62 C-161.88 225.41 -165.49 221.36 -169.47 217.53 C-171.72 215.28 -173.73 212.84 -175.74 210.38 C-176.97 208.86 -176.97 208.86 -179 208 C-179.33 208.99 -179.66 209.98 -180 211 C-181.64 212.65 -181.64 212.65 -183.69 214.38 C-184.41 214.98 -185.12 215.59 -185.86 216.21 C-186.57 216.8 -187.27 217.39 -188 218 C-188.59 218.52 -189.18 219.03 -189.79 219.57 C-193.75 223 -193.75 223 -196 223 C-196.21 213.49 -195.98 204.46 -194.45 195.04 C-193.73 190.16 -193.42 185.73 -195 181 C-224.48 180.94 -253.96 181.09 -283.44 181.4 C-288.93 181.46 -294.43 181.52 -299.92 181.57 C-313.8 181.71 -327.68 181.86 -341.56 182 C-356.57 182.16 -371.58 182.31 -386.59 182.46 C-392.01 182.52 -397.42 182.57 -402.83 182.63 C-430.89 182.93 -458.94 183.06 -487 183 C-487 180.69 -487 178.38 -487 176 C-474.62 172.3 -462.26 168.67 -449.69 165.69 C-445.07 164.58 -440.6 163.23 -436.11 161.7 C-433.13 160.71 -430.11 159.98 -427.06 159.25 C-411.57 155.47 -396.17 151.27 -380.88 146.75 C-370.43 143.67 -359.94 140.73 -349.44 137.82 C-347.61 137.32 -345.78 136.81 -343.95 136.3 C-341.37 135.58 -338.78 134.87 -336.2 134.16 C-335.02 133.83 -335.02 133.83 -333.83 133.5 C-330.8 132.67 -328.16 132 -325 132 C-326.46 129.49 -327.87 127.16 -329.75 124.94 C-331 123 -331 123 -330.79 121.09 C-329.83 118.56 -328.68 117.4 -326.68 115.57 C-326 114.94 -325.32 114.31 -324.62 113.66 C-323.9 113.01 -323.18 112.36 -322.44 111.69 C-321.75 111.05 -321.05 110.41 -320.34 109.75 C-318.94 108.47 -317.54 107.19 -316.13 105.92 C-314.69 104.62 -313.26 103.31 -311.85 101.99 C-311.16 101.36 -310.47 100.73 -309.76 100.07 C-309.14 99.5 -308.53 98.93 -307.9 98.35 C-305.07 96.34 -302.58 96.03 -299.18 96.3 C-295.03 97.63 -292.65 100.69 -290 104 C-289.36 104.68 -288.72 105.36 -288.06 106.06 C-286.48 108.95 -286.47 110.76 -287 114 C-289.31 116.69 -289.31 116.69 -292 119 C-293.01 119.99 -294.01 120.99 -295 122 C-283.72 119.71 -272.7 116.87 -261.68 113.55 C-260.72 113.26 -259.77 112.98 -258.79 112.68 C-257.84 112.4 -256.9 112.11 -255.93 111.82 C-252.86 110.96 -249.78 110.31 -246.66 109.64 C-241.25 108.31 -238.36 106.46 -234.81 102.25 C-233.82 101.17 -232.82 100.1 -231.81 99.03 C-231.34 98.51 -230.86 97.99 -230.37 97.46 C-226.1 92.91 -221.82 88.71 -215.38 88.12 C-211.52 88.41 -209.94 89.69 -207.38 92.5 C-206.89 93.15 -206.4 93.8 -205.9 94.47 C-202.99 96.82 -200.68 96.22 -197 96 C-194.18 95.43 -191.45 94.63 -188.7 93.8 C-187.09 93.34 -185.49 92.88 -183.89 92.42 C-183.08 92.18 -182.27 91.94 -181.43 91.7 C-177.63 90.61 -173.81 89.59 -169.99 88.57 C-168.49 88.17 -166.98 87.76 -165.48 87.36 C-164.73 87.16 -163.97 86.96 -163.2 86.75 C-149.71 83.13 -136.24 79.46 -122.86 75.43 C-119.95 74.55 -117.04 73.75 -114.08 73.07 C-105.54 70.97 -100.47 66.59 -94.48 60.48 C-92.09 58.09 -89.57 55.83 -87.06 53.56 C-86.06 52.64 -85.05 51.72 -84.05 50.8 C-83.55 50.34 -83.05 49.88 -82.53 49.4 C-74.98 42.48 -67.47 35.51 -60 28.5 C-57.98 26.61 -55.96 24.71 -53.94 22.82 C-52.68 21.64 -51.41 20.45 -50.15 19.26 C-36.58 6.5 -20.05 -8.39 0 0 Z " fill="#F4F6F0" transform="translate(772,290)"/>
<path d="M0 0 C3 0 3 0 4.54 1.32 C7.7 5.06 9.81 8.13 11 13 C12.9 13.03 14.79 13.05 16.69 13.06 C18.27 13.08 18.27 13.08 19.89 13.1 C22.77 13.01 25.24 12.85 28 12 C29.74 9.1 29.74 9.1 31 6 C31.66 5.34 32.32 4.68 33 4 C36.85 4 38.53 5.41 41.12 8 C45.5 12.06 50.25 11.98 56 12 C56.33 8.7 56.66 5.4 57 2 C60 3 60 3 61.69 6.31 C63 10 63 10 63 14 C70.92 13.5 70.92 13.5 79 13 C79.33 11.35 79.66 9.7 80 8 C83 6 83 6 85.62 6.25 C86.8 6.62 86.8 6.62 88 7 C88.33 7.66 88.66 8.32 89 9 C97.77 11.53 106.97 11.22 116 11 C115.67 10.01 115.34 9.02 115 8 C116.91 6.01 118.42 5.07 121.16 4.73 C127.43 4.62 127.43 4.62 131 7 C131.66 8.32 132.32 9.64 133 11 C137.62 11 142.24 11 147 11 C147.41 9.87 147.83 8.73 148.25 7.56 C150 4 150 4 152.19 3.06 C152.79 3.04 153.38 3.02 154 3 C155.72 6.3 157.29 9.33 158 13 C159.49 12.5 159.49 12.5 161 12 C161.33 11.01 161.66 10.02 162 9 C163.98 9.5 163.98 9.5 166 10 C166 10.66 166 11.32 166 12 C167.44 11.89 168.88 11.76 170.31 11.62 C171.11 11.56 171.91 11.49 172.74 11.41 C175.27 11.1 175.27 11.1 178 9 C179.01 6.82 179.01 6.82 179.69 4.38 C179.94 3.56 180.19 2.74 180.45 1.9 C180.63 1.27 180.81 0.65 181 0 C184.77 1.75 186.71 3.45 189 7 C189.75 10.81 189.75 10.81 190 14 C196.87 13.11 200.09 12.05 205 7 C207.75 7.12 207.75 7.12 211 8 C212.58 8.19 214.16 8.35 215.75 8.5 C218.2 8.73 219.79 8.89 222 10 C224.84 10.23 227.66 10.4 230.51 10.54 C231.35 10.58 232.19 10.62 233.06 10.67 C235.74 10.8 238.43 10.93 241.12 11.06 C242.95 11.15 244.77 11.25 246.59 11.34 C251.06 11.56 255.53 11.78 260 12 C260 11.34 260 10.68 260 10 C261 9 262 8 263 7 C263.33 6.01 263.66 5.02 264 4 C264.99 4 265.98 4 267 4 C267.66 6.31 268.32 8.62 269 11 C270.46 11.03 271.92 11.05 273.38 11.06 C274.59 11.08 274.59 11.08 275.84 11.1 C278.05 11.14 278.05 11.14 280 10 C282.37 9.93 284.75 9.92 287.12 9.94 C288.41 9.95 289.69 9.96 291.01 9.96 C292.49 9.98 292.49 9.98 294 10 C294.33 7.69 294.66 5.38 295 3 C295.66 3 296.32 3 297 3 C300.03 9.3 300.03 9.3 299.93 11.88 C298.52 15.1 296.11 17.28 293.62 19.69 C293.09 20.22 292.55 20.75 291.99 21.29 C287.77 25.39 283.32 29.13 278.71 32.79 C275.01 35.8 271.56 39.06 268.09 42.35 C267.62 42.75 267.15 43.15 266.67 43.56 C265.41 44.65 264.2 45.8 263.02 46.97 C253.97 54.95 244.72 54.14 233.2 54.05 C231.08 54.06 228.95 54.08 226.82 54.1 C221 54.14 215.17 54.13 209.35 54.12 C203.06 54.11 196.77 54.15 190.48 54.18 C178.16 54.24 165.85 54.25 153.53 54.24 C143.52 54.24 133.51 54.25 123.49 54.27 C122.05 54.27 120.61 54.27 119.17 54.27 C117 54.28 114.83 54.28 112.66 54.29 C92.49 54.32 72.32 54.34 52.14 54.33 C51 54.33 51 54.33 49.84 54.33 C45.99 54.33 42.14 54.32 38.28 54.32 C37.52 54.32 36.75 54.32 35.96 54.32 C34.42 54.32 32.87 54.32 31.32 54.32 C7.26 54.3 -16.8 54.34 -40.86 54.42 C-67.92 54.51 -94.97 54.56 -122.03 54.55 C-124.91 54.55 -127.8 54.55 -130.69 54.54 C-131.4 54.54 -132.11 54.54 -132.84 54.54 C-143.56 54.54 -154.27 54.57 -164.98 54.62 C-177.17 54.67 -189.36 54.68 -201.55 54.63 C-207.77 54.61 -213.98 54.6 -220.2 54.66 C-225.9 54.71 -231.59 54.69 -237.29 54.63 C-239.34 54.62 -241.4 54.63 -243.45 54.67 C-259.16 54.92 -267.63 50.69 -279 40 C-280.27 38.86 -281.54 37.71 -282.81 36.57 C-284.97 34.63 -287.09 32.66 -289.2 30.66 C-291.56 28.41 -293.97 26.25 -296.44 24.12 C-297.04 23.59 -297.65 23.05 -298.27 22.5 C-299.44 21.49 -300.63 20.51 -301.85 19.56 C-303.56 18.12 -303.56 18.12 -306 15 C-306.08 12.57 -305.78 10.52 -305.23 8.15 C-304.95 5.5 -305.64 4.24 -307 2 C-300.14 1.57 -295.54 4.15 -290 8 C-288.36 9.92 -287.28 11.81 -286 14 C-283.88 14.95 -283.88 14.95 -282 15 C-281.57 14.14 -281.57 14.14 -281.13 13.27 C-279.42 9.84 -277.71 6.42 -276 3 C-271.82 4.81 -270.73 6.77 -269 11 C-269 11.99 -269 12.98 -269 14 C-264.71 14 -260.42 14 -256 14 C-255.34 12.68 -254.68 11.36 -254 10 C-252.19 7.69 -252.19 7.69 -250 6 C-247.25 6.25 -247.25 6.25 -245 7 C-244.5 8.98 -244.5 8.98 -244 11 C-242.35 11 -240.7 11 -239 11 C-238.61 9.91 -238.22 8.81 -237.81 7.69 C-236.48 3.98 -234.42 2.82 -231 1 C-230.76 1.92 -230.52 2.83 -230.27 3.77 C-229.76 5.56 -229.76 5.56 -229.25 7.38 C-228.76 9.15 -228.76 9.15 -228.27 10.96 C-227.29 14.09 -227.29 14.09 -224.86 15.41 C-224.25 15.61 -223.63 15.8 -223 16 C-223 14.68 -223 13.36 -223 12 C-221.02 12.66 -219.04 13.32 -217 14 C-216.01 9.71 -215.02 5.42 -214 1 C-213.01 1 -212.02 1 -211 1 C-208.9 3.43 -207.09 6.01 -205.23 8.62 C-201.83 12.25 -198.66 12.9 -193.79 13.2 C-192.22 13.16 -192.22 13.16 -190.62 13.12 C-189.04 13.1 -189.04 13.1 -187.41 13.07 C-186.22 13.04 -186.22 13.04 -185 13 C-184.67 9.37 -184.34 5.74 -184 2 C-180 3 -180 3 -178 6 C-175.94 6.72 -175.94 6.72 -174 7 C-173.67 6.01 -173.34 5.02 -173 4 C-172.34 4 -171.68 4 -171 4 C-170.67 3.01 -170.34 2.02 -170 1 C-169.01 1 -168.02 1 -167 1 C-164.88 4.53 -164.47 7.94 -164 12 C-162.11 12.04 -162.11 12.04 -160 11 C-158.4 8.76 -157.25 6.46 -156 4 C-152.12 5.75 -152.12 5.75 -151 8 C-150.96 10 -150.96 12 -151 14 C-145.39 13.59 -145.39 13.59 -140.31 11.44 C-133.03 8.28 -124.52 9.58 -117.01 11.55 C-113.96 12.23 -111.11 12.13 -108 12 C-107.01 9.36 -106.02 6.72 -105 4 C-103.02 4.5 -103.02 4.5 -101 5 C-101 6.32 -101 7.64 -101 9 C-92.34 11.89 -83.48 9.43 -75 7 C-73.67 6.66 -72.34 6.33 -71 6 C-71 8.31 -71 10.62 -71 13 C-69.02 13.66 -67.04 14.32 -65 15 C-65.03 13.79 -65.03 13.79 -65.06 12.56 C-65 10 -65 10 -64 9 C-61.67 8.96 -59.33 8.96 -57 9 C-57 9.66 -57 10.32 -57 11 C-55.54 11.05 -54.08 11.09 -52.62 11.12 C-51.41 11.16 -51.41 11.16 -50.16 11.2 C-47.79 11.21 -47.79 11.21 -46 9 C-45.76 7.02 -45.76 7.02 -45.88 4.88 C-45.94 2.96 -45.94 2.96 -46 1 C-41.11 1.42 -39.3 3.54 -36 7 C-33.83 8.3 -33.83 8.3 -32 9 C-32 9.66 -32 10.32 -32 11 C-30.68 11 -29.36 11 -28 11 C-28 9.68 -28 8.36 -28 7 C-26.02 6.67 -24.04 6.34 -22 6 C-21.44 6.87 -21.44 6.87 -20.86 7.75 C-20.35 8.49 -19.84 9.24 -19.31 10 C-18.81 10.74 -18.31 11.49 -17.8 12.25 C-16.09 14.28 -16.09 14.28 -13.29 14.25 C-12.54 14.17 -11.78 14.09 -11 14 C-10.34 12.68 -9.68 11.36 -9 10 C-8.13 10.96 -8.13 10.96 -7.25 11.94 C-4.99 14.34 -4.99 14.34 -1 15 C-0.67 10.05 -0.34 5.1 0 0 Z " fill="#A3D78A" transform="translate(516,805)"/>
<path d="M0 0 C2.41 3.61 3.04 7.07 3.88 11.25 C4.13 12.49 4.13 12.49 4.39 13.76 C6.3 23.22 7.92 32.74 9.52 42.26 C10.18 46.04 10.9 49.82 11.63 53.59 C12 56 12 56 12 60 C12.83 59.5 13.65 59.01 14.5 58.5 C18.53 56.77 21.74 55.91 26 57 C30.89 59.83 36.01 63.56 38 69 C38.97 73.79 38.97 73.79 38 77 C34.1 82.5 29.31 86.89 24 91 C23.87 90.16 23.87 90.16 23.74 89.31 C22.65 83.42 20.76 78.72 17 74 C16.34 73.67 15.68 73.34 15 73 C15.85 77.71 16.71 82.42 17.56 87.12 C17.69 87.85 17.83 88.58 17.96 89.33 C19.58 98.23 21.2 107.12 22.85 116.02 C23.01 116.85 23.16 117.68 23.32 118.53 C24.06 122.55 24.8 126.56 25.55 130.58 C26.95 138.12 28.29 145.68 29.52 153.25 C30.56 159.63 31.79 165.94 33.18 172.25 C34.73 179.33 36.12 186.44 37.53 193.54 C38.06 196.19 38.6 198.85 39.13 201.5 C45.05 231.09 45.05 231.09 44 236 C41.5 238.56 41.5 238.56 39 240 C35.93 238.64 33.93 237.14 31.64 234.69 C31.03 234.03 30.41 233.37 29.77 232.69 C29.13 231.99 28.48 231.29 27.81 230.56 C27.14 229.84 26.48 229.12 25.79 228.38 C21.29 223.5 17.04 218.5 12.91 213.31 C10.7 210.64 8.3 208.27 5.81 205.88 C3.55 203.53 1.54 201.04 -0.5 198.5 C-3.6 194.65 -6.78 191.1 -10.33 187.66 C-12.73 185.27 -14.92 182.72 -17.13 180.16 C-22.35 174.14 -27.76 168.27 -33.12 162.38 C-35.93 159.3 -38.71 156.21 -41.44 153.06 C-44.87 149.11 -48.41 145.27 -51.96 141.42 C-54.49 138.67 -56.99 135.89 -59.44 133.06 C-62.44 129.59 -65.56 126.23 -68.69 122.88 C-73.55 117.65 -78.22 112.29 -82.83 106.83 C-85.96 103.14 -89.19 99.67 -92.79 96.43 C-94.26 94.69 -94.6 93.22 -95 91 C-93.51 90.5 -93.51 90.5 -92 90 C-91.32 88.68 -90.65 87.34 -90 86 C-88.3 84.29 -88.3 84.29 -86.31 82.62 C-85.6 82.02 -84.89 81.42 -84.16 80.79 C-82.8 79.67 -81.45 78.55 -80.09 77.43 C-76.8 74.67 -74.11 71.95 -71.44 68.56 C-69.67 66.64 -67.72 65.18 -65.62 63.62 C-61.79 60.75 -58.83 57.66 -55.77 54 C-52.83 50.68 -49.57 47.63 -46 45 C-45.34 45 -44.68 45 -44 45 C-43.77 44.46 -43.55 43.93 -43.31 43.38 C-40.16 37.67 -36.44 34.46 -31 31 C-30.67 30.34 -30.34 29.68 -30 29 C-29.34 29 -28.68 29 -28 29 C-28 28.34 -28 27.68 -28 27 C-26.53 25.55 -26.53 25.55 -24.5 23.88 C-20.65 20.62 -17.14 17.15 -13.66 13.5 C-12 12 -12 12 -10 12 C-9.77 11.42 -9.55 10.85 -9.31 10.25 C-7.67 7.43 -5.57 6 -3 4 C-1.24 1.87 -1.24 1.87 0 0 Z " fill="#F4F6EF" transform="translate(695,411)"/>
<path d="M0 0 C4.45 3.99 6.74 7.77 7.43 13.77 C7.46 15.12 7.46 16.46 7.44 17.81 C7.43 18.52 7.42 19.23 7.41 19.96 C7.07 30.51 1.82 38.44 -5.7 45.63 C-6.96 46.72 -8.23 47.8 -9.51 48.86 C-12.89 51.77 -16.13 54.82 -19.38 57.88 C-23.53 61.77 -27.69 65.65 -31.94 69.44 C-36.36 73.39 -40.68 77.44 -45 81.5 C-50.06 86.26 -55.16 90.98 -60.36 95.6 C-62.53 97.57 -64.67 99.57 -66.8 101.59 C-67.47 102.22 -68.15 102.86 -68.84 103.51 C-70.17 104.77 -71.5 106.04 -72.82 107.3 C-73.44 107.88 -74.05 108.46 -74.68 109.06 C-75.5 109.84 -75.5 109.84 -76.33 110.63 C-78 112 -78 112 -80.16 113.05 C-82.22 113.85 -82.22 113.85 -82.75 116.12 C-82.83 116.74 -82.91 117.36 -83 118 C-83.33 117.34 -83.66 116.68 -84 116 C-84.83 117.01 -85.65 118.02 -86.5 119.06 C-89.31 122.35 -92.34 125.1 -95.64 127.89 C-99.25 131.12 -102.61 134.6 -105.96 138.09 C-107.27 139.43 -108.63 140.72 -110 142 C-110.66 142 -111.32 142 -112 142 C-112 142.66 -112 143.32 -112 144 C-112.66 144 -113.32 144 -114 144 C-114.23 144.62 -114.45 145.24 -114.69 145.88 C-116.39 148.63 -118.05 148.82 -121 150 C-122.07 151.8 -122.07 151.8 -123 154 C-126.01 157.91 -128.93 161.14 -133 164 C-133.66 164 -134.32 164 -135 164 C-135.33 164.99 -135.66 165.98 -136 167 C-140.32 171.77 -140.32 171.77 -144 173 C-144.27 173.58 -144.54 174.15 -144.81 174.75 C-146.58 178.09 -148.98 179.74 -152 182 C-152.66 182 -153.32 182 -154 182 C-154.66 183.32 -155.32 184.64 -156 186 C-156.66 186 -157.32 186 -158 186 C-158.33 186.99 -158.66 187.98 -159 189 C-159.66 189 -160.32 189 -161 189 C-161.33 189.99 -161.66 190.98 -162 192 C-163.67 193.68 -163.67 193.68 -165.75 195.44 C-166.47 196.05 -167.19 196.66 -167.94 197.3 C-169.53 198.61 -171.14 199.9 -172.75 201.19 C-175 203 -177 204.93 -179 207 C-182.47 204.52 -182.47 204.52 -186 202 C-186.33 202.99 -186.66 203.98 -187 205 C-188.64 206.65 -188.64 206.65 -190.69 208.38 C-191.41 208.98 -192.12 209.59 -192.86 210.21 C-193.57 210.8 -194.27 211.39 -195 212 C-195.89 212.78 -195.89 212.78 -196.79 213.57 C-200.75 217 -200.75 217 -203 217 C-203.21 207.49 -202.98 198.46 -201.45 189.04 C-200.73 184.16 -200.42 179.73 -202 175 C-205.63 174.67 -209.26 174.34 -213 174 C-213 173.67 -213 173.34 -213 173 C-212.13 172.96 -212.13 172.96 -211.24 172.92 C-210.46 172.87 -209.68 172.81 -208.88 172.75 C-208.11 172.7 -207.34 172.66 -206.55 172.61 C-199.63 170.96 -195 165.19 -190.25 160.25 C-188.93 158.88 -187.6 157.51 -186.27 156.14 C-185.4 155.24 -185.4 155.24 -184.51 154.31 C-183 153 -183 153 -181 153 C-181 152.34 -181 151.68 -181 151 C-180.34 151 -179.68 151 -179 151 C-178.67 150.01 -178.34 149.02 -178 148 C-177.34 148 -176.68 148 -176 148 C-175.67 147.01 -175.34 146.02 -175 145 C-173.55 143.57 -173.55 143.57 -171.75 142.12 C-167.56 138.65 -163.8 135.04 -160.44 130.75 C-157.33 127.25 -157.33 127.25 -154 127 C-154 126.34 -154 125.68 -154 125 C-152.5 123.52 -152.5 123.52 -150.44 121.81 C-146.89 118.81 -143.63 115.66 -140.45 112.29 C-139 111 -139 111 -137 111 C-136.5 109.51 -136.5 109.51 -136 108 C-130.68 102.16 -124.55 96.79 -118.35 91.91 C-115.48 89.58 -113.36 86.84 -111 84 C-107.5 81 -107.5 81 -105 81 C-105 80.34 -105 79.68 -105 79 C-104.34 79 -103.68 79 -103 79 C-103 78.34 -103 77.68 -103 77 C-101.46 75.52 -101.46 75.52 -99.38 73.81 C-96.66 71.52 -94.28 69.27 -92.06 66.5 C-89.1 62.88 -85.62 60.23 -81.86 57.48 C-79.89 56.12 -79.89 56.12 -79 54 C-78.34 54 -77.68 54 -77 54 C-76.67 53.01 -76.34 52.02 -76 51 C-74.36 49.63 -72.69 48.31 -71 47 C-70.24 46.24 -69.47 45.47 -68.69 44.69 C-65.87 41.87 -62.92 39.3 -59.91 36.7 C-58.34 35.3 -56.85 33.82 -55.38 32.31 C-49.11 26.21 -43.02 24.06 -34.44 23.5 C-24.77 22.25 -18.36 16.51 -11.76 9.68 C-10 8 -10 8 -8 8 C-8 7.34 -8 6.68 -8 6 C-4.54 3 -4.54 3 -2 3 C-2 2.34 -2 1.68 -2 1 C-1.34 0.67 -0.68 0.34 0 0 Z " fill="#E3E4DF" transform="translate(779,296)"/>
<path d="M0 0 C7.62 6.35 13.01 14.35 15.21 24.07 C15.39 27.13 15.39 27.13 15.21 29.07 C16.26 29.15 17.31 29.24 18.39 29.32 C22.61 30.15 24.36 30.89 27.21 34.07 C28.02 37.82 28.02 37.82 28.21 41.07 C29.18 40.95 30.15 40.82 31.14 40.7 C36.38 40.68 40.41 43.68 44.21 47.07 C48.18 52.41 47.99 57.66 47.21 64.07 C44.79 69.09 41.21 72.57 36.21 75.07 C34.36 75.18 32.51 75.22 30.67 75.23 C29.49 75.24 28.31 75.25 27.1 75.26 C25.15 75.27 25.15 75.27 23.16 75.28 C21.79 75.29 20.41 75.3 19.03 75.31 C14.51 75.34 9.98 75.36 5.45 75.38 C4.68 75.38 3.91 75.39 3.11 75.39 C-4.16 75.42 -11.43 75.45 -18.7 75.46 C-27.99 75.49 -37.28 75.53 -46.58 75.6 C-53.11 75.64 -59.65 75.67 -66.19 75.68 C-70.09 75.68 -73.99 75.7 -77.9 75.74 C-81.57 75.77 -85.25 75.78 -88.92 75.77 C-90.91 75.77 -92.89 75.8 -94.87 75.83 C-101.7 75.77 -106.08 75.21 -111.33 70.68 C-115.3 66.3 -116.49 61.17 -116.27 55.41 C-115.11 49.69 -111.35 44.75 -106.54 41.51 C-101.05 38.82 -94.53 39.45 -88.79 41.07 C-88.77 40.04 -88.75 39.01 -88.73 37.95 C-87.66 33.51 -86.49 31.92 -82.98 29.16 C-79.05 27.2 -75.06 27.61 -70.79 28.07 C-70.75 26.79 -70.71 25.51 -70.67 24.2 C-70 18.19 -67.22 13.93 -63.79 9.07 C-63.13 8.11 -63.13 8.11 -62.45 7.13 C-47.03 -12.9 -19.46 -13.45 0 0 Z " fill="#FCFDFB" transform="translate(335.79296875,275.9296875)"/>
<path d="M0 0 C0.99 0.33 1.98 0.66 3 1 C3.18 7.57 2.48 13.81 1.56 20.31 C1.29 22.27 1.02 24.22 0.75 26.18 C0.62 27.14 0.48 28.1 0.34 29.08 C-0 32.03 -0.15 34.95 -0.3 37.91 C-0.62 41.66 -0.87 42.82 -3.14 45.97 C-4.02 46.66 -4.91 47.35 -5.81 48.06 C-6.69 48.78 -7.56 49.49 -8.46 50.22 C-10.6 51.72 -12.63 52.93 -15 54 C-15 54.66 -15 55.32 -15 56 C-16.33 57.34 -16.33 57.34 -18.25 58.94 C-21.82 61.97 -25.31 65.08 -28.75 68.25 C-29.26 68.72 -29.77 69.19 -30.29 69.67 C-31.34 70.63 -32.39 71.6 -33.44 72.56 C-35.95 74.88 -38.48 77.19 -41 79.5 C-42 80.42 -43 81.33 -44 82.25 C-46 84.08 -48 85.92 -50 87.75 C-50.5 88.2 -50.99 88.66 -51.5 89.13 C-52.5 90.04 -53.49 90.95 -54.49 91.87 C-57.04 94.2 -59.59 96.55 -62.14 98.89 C-66.99 103.35 -71.86 107.78 -76.84 112.1 C-81.63 116.32 -86.31 120.67 -91 125 C-94 124 -94 124 -96 121 C-98.93 122.33 -101.07 123.8 -103.39 126.01 C-104.01 126.6 -104.64 127.19 -105.28 127.8 C-105.93 128.42 -106.58 129.04 -107.25 129.69 C-108.61 130.97 -109.97 132.26 -111.33 133.54 C-112.29 134.45 -112.29 134.45 -113.28 135.38 C-116.44 138.35 -119.71 141.18 -123 144 C-124.83 145.58 -126.66 147.17 -128.49 148.76 C-129.82 149.91 -131.15 151.06 -132.48 152.21 C-137 156.13 -141.51 160.05 -146 164 C-144.37 165.71 -143.13 166.93 -141 168 C-142 171 -142 171 -144.89 172.61 C-146.17 173.19 -147.46 173.76 -148.75 174.33 C-149.45 174.64 -150.14 174.95 -150.85 175.27 C-153.09 176.28 -155.32 177.26 -157.56 178.25 C-159.01 178.9 -160.46 179.55 -161.91 180.2 C-164.81 181.5 -167.72 182.79 -170.63 184.07 C-173.57 185.36 -176.49 186.68 -179.41 188.01 C-180.83 188.65 -182.24 189.28 -183.65 189.92 C-184.29 190.22 -184.93 190.51 -185.58 190.82 C-189.79 192.7 -193.46 193.54 -198 194 C-199.46 189.41 -197.94 186.22 -196 182 C-194.36 178.93 -192.72 175.87 -191.01 172.83 C-189.77 170.12 -189.77 170.12 -190.46 167.67 C-192.72 163.75 -195.29 160.1 -197.94 156.44 C-198.48 155.68 -199.01 154.93 -199.57 154.15 C-202.56 149.96 -202.56 149.96 -205.68 145.88 C-207 144 -207 144 -207 142 C-204.75 139.81 -204.75 139.81 -202 138 C-199.28 138.2 -198.23 138.77 -196.29 140.72 C-195.46 141.81 -195.46 141.81 -194.62 142.93 C-193.7 144.12 -193.7 144.12 -192.77 145.34 C-192.14 146.18 -191.52 147.01 -190.88 147.88 C-190.24 148.7 -189.61 149.53 -188.96 150.39 C-186.55 153.55 -184.2 156.7 -182 160 C-174.19 156.41 -168.39 149.44 -162.43 143.41 C-159.05 140.01 -155.57 136.81 -151.92 133.7 C-149.72 131.75 -147.68 129.67 -145.62 127.56 C-141.65 123.51 -137.4 120.04 -132.87 116.63 C-132.25 116.09 -131.64 115.55 -131 115 C-131 114.34 -131 113.68 -131 113 C-145.42 105.34 -145.42 105.34 -160 98 C-159.07 96.85 -158.13 95.7 -157.19 94.56 C-156.67 93.92 -156.14 93.29 -155.61 92.63 C-154 91 -154 91 -151 90 C-148.51 90.67 -148.51 90.67 -145.55 91.77 C-144.48 92.16 -143.4 92.56 -142.29 92.96 C-141.16 93.39 -140.04 93.81 -138.88 94.25 C-136.66 95.07 -134.45 95.89 -132.24 96.7 C-131.18 97.1 -130.13 97.49 -129.04 97.89 C-125.05 99.35 -121.04 100.69 -117 102 C-116.5 100.51 -116.5 100.51 -116 99 C-114.57 97.56 -114.57 97.56 -112.69 96 C-109.09 92.95 -105.59 89.82 -102.12 86.62 C-98.52 83.31 -94.9 80.01 -91.25 76.75 C-84.75 70.92 -78.42 64.92 -72.06 58.94 C-61.57 49.08 -51.02 39.3 -40.43 29.56 C-38.85 28.1 -37.27 26.64 -35.69 25.19 C-35.16 24.71 -34.64 24.22 -34.1 23.73 C-30.99 20.85 -27.89 17.96 -24.8 15.05 C-24.09 14.38 -23.37 13.71 -22.64 13.01 C-21.24 11.7 -19.86 10.39 -18.47 9.07 C-8.14 -0.66 -8.14 -0.66 0 0 Z " fill="#3678A4" transform="translate(576,473)"/>
<path d="M0 0 C3.1 1.32 4.62 2.45 6.33 5.34 C6.73 6.01 7.14 6.67 7.55 7.36 C7.97 8.06 8.38 8.77 8.81 9.5 C9.7 10.97 10.59 12.43 11.48 13.9 C11.92 14.61 12.35 15.32 12.79 16.05 C14.29 18.47 15.9 20.81 17.56 23.12 C20.54 27.31 23.34 31.59 26.1 35.91 C29.86 41.8 33.68 47.65 37.5 53.5 C41.71 59.94 45.91 66.39 50.06 72.88 C53.32 77.96 56.63 83 60 88 C58.62 91.08 57.01 93.37 54.69 95.81 C54.11 96.44 53.54 97.06 52.95 97.71 C51 99 51 99 48.69 98.74 C45.85 97.96 43.59 96.9 41 95.48 C40.04 94.96 39.08 94.44 38.1 93.9 C37.07 93.34 36.05 92.77 35 92.19 C33.39 91.31 33.39 91.31 31.75 90.41 C24.22 86.27 16.74 82.03 9.29 77.74 C-1.9 71.3 -13.23 65.11 -24.54 58.9 C-27.8 57.11 -31.05 55.32 -34.3 53.54 C-38.86 51.02 -43.43 48.51 -48 46 C-48 43 -48 43 -45.76 40.62 C-44.75 39.69 -43.72 38.78 -42.69 37.88 C-42.14 37.38 -41.59 36.89 -41.03 36.39 C-37.7 33.42 -34.29 30.59 -30.81 27.81 C-24.98 23.13 -19.6 18.01 -14.19 12.85 C-9.56 8.44 -4.84 4.17 0 0 Z " fill="#F3F6F0" transform="translate(478,593)"/>
<path d="M0 0 C5.07 2.93 9.5 6.49 12.75 11.38 C13.29 14.04 13.48 16.67 13.75 19.38 C14.53 19.5 15.32 19.62 16.12 19.75 C18.75 20.38 18.75 20.38 20.75 22.38 C20.75 23.69 20.75 25.01 20.75 26.38 C21.49 26.48 22.24 26.58 23 26.69 C26.17 27.48 27.58 27.9 29.75 30.38 C30.67 33.41 31 36.21 30.75 39.38 C28.98 42.3 27.79 43.85 24.75 45.38 C22.37 45.49 20.01 45.55 17.63 45.57 C16.89 45.58 16.16 45.58 15.4 45.59 C12.97 45.62 10.54 45.63 8.11 45.65 C7.28 45.65 6.44 45.66 5.59 45.66 C1.19 45.69 -3.2 45.71 -7.6 45.73 C-12.14 45.74 -16.68 45.79 -21.22 45.84 C-24.71 45.87 -28.2 45.88 -31.69 45.89 C-33.36 45.9 -35.03 45.91 -36.71 45.93 C-39.05 45.97 -41.39 45.97 -43.74 45.96 C-44.43 45.97 -45.12 45.99 -45.83 46.01 C-49.66 45.96 -51.17 45.44 -54.18 42.98 C-56.91 39.55 -56.92 37.75 -56.68 33.53 C-56.04 30.34 -54.58 28.57 -52.25 26.38 C-49.84 25.17 -48.3 25.27 -45.62 25.31 C-44.4 25.33 -44.4 25.33 -43.15 25.34 C-42.52 25.35 -41.9 25.36 -41.25 25.38 C-41.13 24.59 -41 23.81 -40.88 23 C-40.25 20.38 -40.25 20.38 -38.25 18.38 C-35.12 18.25 -35.12 18.25 -32.25 18.38 C-32.19 17.36 -32.13 16.35 -32.06 15.31 C-31.17 9.56 -28.49 6.04 -23.86 2.6 C-16.14 -2.1 -8.49 -3.86 0 0 Z " fill="#FAFDFB" transform="translate(628.25,204.625)"/>
<path d="M0 0 C2.92 0.6 4 1.07 5.64 3.55 C5.64 4.54 5.64 5.53 5.64 6.55 C4.98 6.55 4.32 6.55 3.64 6.55 C3.64 5.56 3.64 4.57 3.64 3.55 C0.22 4.11 -1.1 5.03 -3.23 7.73 C-11.09 17.11 -19.89 25.56 -29.48 33.12 C-33.77 36.75 -37.67 40.74 -41.59 44.76 C-49.69 53.07 -49.69 53.07 -55.87 53.61 C-67.54 53.32 -79.25 48.44 -90.17 44.67 C-93.21 43.63 -96.26 42.59 -99.31 41.55 C-100.06 41.3 -100.8 41.05 -101.57 40.79 C-107.6 38.76 -113.68 36.92 -119.8 35.19 C-123.41 34.16 -126.9 33.02 -130.36 31.55 C-130.36 28.55 -130.36 28.55 -128.11 26.11 C-127.2 25.26 -126.29 24.42 -125.36 23.55 C-124.81 22.85 -124.27 22.15 -123.71 21.43 C-120.34 18.73 -117.08 18.9 -112.94 18.83 C-111.67 18.79 -111.67 18.79 -110.37 18.75 C-107.56 18.66 -104.76 18.6 -101.95 18.54 C-99.99 18.48 -98.04 18.42 -96.08 18.36 C-90.91 18.2 -85.75 18.07 -80.58 17.94 C-74.35 17.78 -68.11 17.6 -61.88 17.42 C-57.02 17.28 -52.16 17.14 -47.3 17.01 C-42.31 16.89 -37.33 16.73 -32.36 16.55 C-31.67 16.52 -30.99 16.5 -30.28 16.48 C-28.47 16.41 -26.66 16.32 -24.85 16.22 C-23.4 16.15 -23.4 16.15 -21.92 16.07 C-17.03 15.07 -14.12 11.6 -10.92 7.98 C-4.2 0.68 -4.2 0.68 0 0 Z " fill="#F4F5F0" transform="translate(418.35546875,555.453125)"/>
<path d="M0 0 C1.32 0 2.64 0 4 0 C4.88 2.06 4.88 2.06 5 5 C3.26 7.59 1.2 9.79 -1 12 C0 12.5 1.01 12.99 2.04 13.5 C10.79 17.84 19.44 22.31 28 27 C26.76 30.71 25.39 31.46 22.31 33.81 C17.49 37.65 13.13 41.73 8.81 46.12 C4.69 50.32 0.56 54.36 -3.93 58.15 C-7.37 61.22 -10.57 64.53 -13.79 67.83 C-16.38 70.47 -18.96 72.89 -22 75 C-25.55 73.55 -27.14 71.81 -29.31 68.68 C-29.91 67.84 -30.51 66.99 -31.13 66.12 C-32.38 64.33 -33.62 62.54 -34.87 60.74 C-35.47 59.9 -36.07 59.05 -36.69 58.18 C-37.23 57.41 -37.77 56.63 -38.32 55.83 C-40.2 53.78 -41.26 53.26 -44 53 C-44.33 53.33 -44.66 53.66 -45 54 C-50.98 54.75 -57.11 52.26 -62 49 C-59.36 49.33 -56.72 49.66 -54 50 C-53.67 49.34 -53.34 48.68 -53 48 C-52.12 47.81 -52.12 47.81 -51.23 47.62 C-48.2 46.78 -46.67 45.19 -44.38 43.06 C-43.49 42.25 -42.61 41.44 -41.71 40.6 C-39.11 38.11 -36.58 35.57 -34.06 33 C-30.82 29.71 -27.51 26.73 -23.88 23.88 C-18.73 19.77 -14.08 15.28 -9.44 10.62 C-8.73 9.92 -8.03 9.22 -7.31 8.5 C-4.58 5.74 -2.16 3.24 0 0 Z " fill="#D1D5D7" transform="translate(418,559)"/>
<path d="M0 0 C0.99 0.33 1.98 0.66 3 1 C3.3 8.47 2.16 15.63 1 23 C0.67 23 0.34 23 0 23 C-0.06 21.87 -0.12 20.74 -0.18 19.57 C-0.27 18.09 -0.35 16.61 -0.44 15.12 C-0.48 14.38 -0.52 13.63 -0.56 12.86 C-0.72 8.8 -0.72 8.8 -2 5 C-2.61 5.57 -2.61 5.57 -3.23 6.15 C-8.15 10.77 -13.08 15.39 -18 20 C-19.02 20.95 -19.02 20.95 -20.05 21.92 C-27.19 28.61 -34.35 35.28 -41.63 41.82 C-43.3 43.35 -44.93 44.93 -46.53 46.53 C-48.75 48.75 -51.02 50.86 -53.38 52.94 C-58.42 57.45 -63.37 62.06 -68.31 66.69 C-73.31 71.36 -78.35 75.99 -83.41 80.6 C-85.23 82.28 -86.99 84.03 -88.71 85.81 C-91 88 -91 88 -93 88 C-93 88.66 -93 89.32 -93 90 C-94.61 91.59 -94.61 91.59 -96.75 93.38 C-99.07 95.34 -101.25 97.26 -103.38 99.44 C-105 101 -105 101 -107 101 C-107 101.66 -107 102.32 -107 103 C-107.66 103 -108.32 103 -109 103 C-109 103.66 -109 104.32 -109 105 C-111.69 107.19 -111.69 107.19 -115 109 C-118.47 108.61 -121.48 107.52 -124.69 106.19 C-125.56 105.83 -126.42 105.47 -127.32 105.11 C-128.2 104.74 -129.09 104.38 -130 104 C-131.71 103.33 -133.42 102.67 -135.12 102 C-138.94 100.48 -142.59 98.76 -146.24 96.88 C-148.44 95.78 -150.69 94.86 -153 94 C-152.34 92.68 -151.68 91.36 -151 90 C-150.29 90.26 -149.58 90.51 -148.85 90.78 C-145.59 91.96 -142.32 93.14 -139.06 94.31 C-137.95 94.72 -136.83 95.12 -135.68 95.54 C-129.48 97.77 -123.26 99.95 -117 102 C-116.5 100.51 -116.5 100.51 -116 99 C-114.57 97.56 -114.57 97.56 -112.69 96 C-109.09 92.95 -105.59 89.82 -102.12 86.62 C-98.52 83.31 -94.9 80.01 -91.25 76.75 C-84.75 70.92 -78.42 64.92 -72.06 58.94 C-61.57 49.08 -51.02 39.3 -40.43 29.56 C-38.85 28.1 -37.27 26.64 -35.69 25.19 C-34.9 24.47 -34.9 24.47 -34.1 23.73 C-30.99 20.85 -27.89 17.96 -24.8 15.05 C-24.09 14.38 -23.37 13.71 -22.64 13.01 C-21.24 11.7 -19.86 10.39 -18.47 9.07 C-8.14 -0.66 -8.14 -0.66 0 0 Z " fill="#4E97C2" transform="translate(576,473)"/>
<path d="M0 0 C4.15 1.33 6.53 4.39 9.18 7.7 C9.82 8.38 10.45 9.06 11.11 9.76 C12.7 12.64 12.7 14.46 12.18 17.7 C9.86 20.32 9.86 20.32 7.18 22.7 C5.08 24.93 5.08 24.93 4.18 27.7 C3.63 27.8 3.09 27.91 2.52 28.03 C-1.5 28.87 -5.38 29.83 -9.26 31.2 C-13.37 32.63 -17.48 33.5 -21.76 34.27 C-23.87 34.61 -23.87 34.61 -25.82 35.7 C-26.26 34.95 -26.69 34.21 -27.14 33.45 C-28.71 30.72 -28.71 30.72 -30.57 28.63 C-31.82 26.7 -31.82 26.7 -31.61 24.79 C-30.66 22.25 -29.5 21.09 -27.51 19.27 C-26.83 18.64 -26.14 18 -25.44 17.35 C-24.72 16.7 -24 16.05 -23.26 15.38 C-22.57 14.74 -21.88 14.11 -21.17 13.45 C-19.77 12.16 -18.36 10.88 -16.95 9.61 C-15.51 8.32 -14.09 7.01 -12.67 5.69 C-11.98 5.05 -11.29 4.42 -10.58 3.77 C-9.97 3.2 -9.36 2.63 -8.72 2.04 C-5.9 0.04 -3.41 -0.27 0 0 Z " fill="#E2E4E1" transform="translate(472.82421875,386.3046875)"/>
<path d="M0 0 C4.89 2.83 10.01 6.56 12 12 C12.97 16.79 12.97 16.79 12 20 C8.1 25.5 3.31 29.89 -2 34 C-2.09 33.44 -2.17 32.89 -2.26 32.31 C-3.35 26.42 -5.24 21.72 -9 17 C-9.66 16.67 -10.32 16.34 -11 16 C-11.33 16.66 -11.66 17.32 -12 18 C-12.66 13.05 -13.32 8.1 -14 3 C-5.29 -1.35 -5.29 -1.35 0 0 Z " fill="#E2E5E2" transform="translate(721,468)"/>
<path d="M0 0 C0.66 0.33 1.32 0.66 2 1 C2.08 2.56 2.14 4.12 2.19 5.69 C2.24 6.99 2.24 6.99 2.29 8.32 C1.92 11.76 1.14 13.26 -1 16 C-2.22 16.94 -3.46 17.86 -4.71 18.74 C-9.17 21.95 -13.33 25.1 -16 30 C-16.97 36.83 -14.7 43.64 -12.81 50.15 C-11.63 54.31 -10.79 58.52 -9.94 62.75 C-9.6 64.31 -9.27 65.86 -8.93 67.42 C-7.98 71.94 -7.25 76.49 -6.56 81.06 C-4.17 96.89 -1.06 112.61 2.54 128.21 C4.65 137.56 6.08 147.05 7.58 156.51 C8 159.02 8.49 161.51 9 164 C8.34 164.33 7.68 164.66 7 165 C6.78 163.87 6.78 163.87 6.56 162.73 C5.85 159.07 5.15 155.41 4.44 151.75 C4.31 151.07 4.17 150.39 4.04 149.69 C2.41 141.29 0.78 132.89 -0.85 124.49 C-1.01 123.7 -1.16 122.91 -1.32 122.1 C-2.06 118.28 -2.81 114.46 -3.55 110.64 C-5.28 101.75 -6.98 92.86 -8.63 83.97 C-9.24 80.7 -9.85 77.44 -10.46 74.18 C-10.71 72.89 -10.95 71.61 -11.19 70.28 C-11.44 68.96 -11.69 67.64 -11.94 66.31 C-12.07 65.62 -12.2 64.93 -12.33 64.22 C-13.77 56.52 -15.22 48.83 -16.69 41.13 C-17.47 37.09 -18.24 33.05 -19 29 C-19.23 27.8 -19.23 27.8 -19.46 26.57 C-19.89 24.24 -20.32 21.9 -20.75 19.56 C-20.88 18.88 -21.01 18.2 -21.14 17.5 C-21.83 13.62 -22.12 9.94 -22 6 C-18.19 7.45 -17.04 9.18 -15.31 12.81 C-14.9 13.66 -14.48 14.52 -14.05 15.39 C-13.03 17.94 -12.44 20.3 -12 23 C-10.37 21.4 -8.75 19.79 -7.12 18.19 C-6.22 17.29 -5.32 16.4 -4.38 15.48 C-0.99 12.04 -0.99 12.04 0.2 7.52 C0.17 6.63 0.15 5.73 0.12 4.81 C0.11 3.91 0.09 3.01 0.07 2.08 C0.05 1.39 0.02 0.71 0 0 Z " fill="#9DD1DB" transform="translate(732,478)"/>
<path d="M0 0 C0.33 0 0.66 0 1 0 C1.08 2.69 1.14 5.37 1.19 8.06 C1.21 8.81 1.24 9.57 1.26 10.34 C1.37 18.6 -1.48 24.08 -7.19 30 C-7.92 30.78 -7.92 30.78 -8.67 31.58 C-11.94 35.01 -15.35 38.19 -18.98 41.23 C-22.21 44.06 -25.15 47.18 -28.12 50.28 C-30.53 52.56 -32.94 54.54 -35.56 56.56 C-41.91 61.58 -47.47 67.29 -53.12 73.06 C-59.56 79.61 -66.01 86.04 -73 92 C-75.33 94.08 -77.64 96.2 -79.94 98.31 C-80.51 98.84 -81.09 99.36 -81.68 99.9 C-84.75 102.63 -84.75 102.63 -87 106 C-86.81 108.29 -86.81 108.29 -86.33 110.92 C-86.16 111.92 -85.99 112.92 -85.82 113.95 C-85.63 115.02 -85.44 116.09 -85.25 117.19 C-85.06 118.28 -84.88 119.37 -84.69 120.49 C-83.67 126.4 -82.56 132.26 -81.31 138.12 C-79.86 145.08 -79.32 151.91 -79 159 C-79.33 159 -79.66 159 -80 159 C-82.52 146.14 -85 133.27 -87.31 120.38 C-87.48 119.45 -87.65 118.52 -87.83 117.56 C-88.27 115.05 -88.65 112.53 -89 110 C-89.19 108.92 -89.19 108.92 -89.38 107.83 C-89.61 105.79 -89.61 105.79 -89 102 C-86.66 99.23 -83.87 97.19 -81 95 C-79.7 93.82 -78.41 92.63 -77.14 91.42 C-76.51 90.82 -75.87 90.23 -75.22 89.61 C-74.57 89 -73.92 88.38 -73.25 87.75 C-66.55 81.44 -59.8 75.2 -53 69 C-45.78 62.4 -38.6 55.76 -31.45 49.08 C-27 44.92 -22.5 40.82 -17.95 36.77 C-16.01 35.05 -16.01 35.05 -14.36 33.26 C-13 32 -13 32 -11 32 C-10.73 31.42 -10.46 30.84 -10.19 30.24 C-8.61 27.26 -6.55 24.81 -4.44 22.2 C-1.24 17.31 -0.7 12.36 -0.38 6.62 C-0.3 5.38 -0.23 4.13 -0.15 2.85 C-0.07 1.44 -0.07 1.44 0 0 Z " fill="#98CCD6" transform="translate(786,308)"/>
<path d="M0 0 C3.4 1.12 5.35 3.29 7.63 5.98 C9.22 7.94 9.22 7.94 12.14 9.7 C11.22 9.96 10.31 10.23 9.36 10.5 C8.72 10.68 8.08 10.86 7.42 11.05 C5.79 11.52 4.17 11.98 2.54 12.44 C-0.45 13.3 -3.44 14.15 -6.42 15.02 C-8.02 15.48 -8.02 15.48 -9.65 15.95 C-16.55 17.96 -23.28 20.18 -29.96 22.86 C-33.36 23.85 -36.33 23.85 -39.86 23.7 C-39.86 23.37 -39.86 23.04 -39.86 22.7 C-39.13 22.63 -38.41 22.55 -37.66 22.47 C-27.93 20.82 -23.59 16.1 -17.23 9.16 C-12.32 3.94 -7.54 -0.58 0 0 Z " fill="#EDF3F0" transform="translate(558.859375,378.296875)"/>
<path d="M0 0 C2.48 0.5 2.48 0.5 5 1 C5.66 5.29 6.32 9.58 7 14 C8.65 13.67 10.3 13.34 12 13 C12.99 13.66 13.98 14.32 15 15 C15.99 12.36 16.98 9.72 18 7 C19.16 10.48 18.77 11.34 17.56 14.69 C17.13 15.9 17.13 15.9 16.69 17.14 C16.46 17.75 16.24 18.37 16 19 C14 18 12 17 10 16 C10 17.32 10 18.64 10 20 C8.14 19.77 8.14 19.77 6 19 C4.77 17.07 4.77 17.07 3.81 14.69 C3.33 13.52 3.33 13.52 2.83 12.32 C2.08 10.23 1.49 8.17 1 6 C-1.03 6.64 -1.03 6.64 -3 8 C-3.67 10.44 -3.67 10.44 -4 13 C-4.99 14.49 -4.99 14.49 -6 16 C-8.62 16.19 -8.62 16.19 -11 16 C-11.33 14.35 -11.66 12.7 -12 11 C-14.48 10.5 -14.48 10.5 -17 10 C-17.33 10.99 -17.66 11.98 -18 13 C-19.75 15.69 -19.75 15.69 -23 18 C-27.36 18.43 -31.63 18.29 -36 18 C-36 17.01 -36 16.02 -36 15 C-35.01 15 -34.02 15 -33 15 C-33 15.66 -33 16.32 -33 17 C-26.86 15.57 -26.86 15.57 -22.19 11.69 C-21.8 10.8 -21.4 9.91 -21 9 C-19 5.69 -19 5.69 -17 3 C-16.01 3 -15.02 3 -14 3 C-13.67 3.66 -13.34 4.32 -13 5 C-10.47 5.66 -10.47 5.66 -8 6 C-6.79 9.62 -7.46 10.64 -9 14 C-8.34 14 -7.68 14 -7 14 C-6.83 13.41 -6.66 12.82 -6.48 12.21 C-5 7.36 -3.53 3.77 0 0 Z " fill="#9DDDCE" transform="translate(283,801)"/>
<path d="M0 0 C2.97 0.81 4.36 1.92 5.96 4.53 C6.02 6.66 6.02 6.66 4.96 8.53 C2.3 9.94 -0.29 10.59 -3.21 11.31 C-7.57 12.55 -11.28 14.69 -15.17 16.97 C-15.86 17.36 -16.55 17.76 -17.26 18.17 C-20.16 19.83 -23.02 21.52 -25.85 23.32 C-28.04 24.53 -28.04 24.53 -31.04 24.53 C-29.44 20.3 -26.27 17.72 -22.98 14.78 C-21.8 13.72 -20.61 12.66 -19.43 11.59 C-18.56 10.82 -18.56 10.82 -17.67 10.02 C-16.24 8.71 -14.87 7.35 -13.5 5.97 C-9.2 1.71 -6.23 -0.61 0 0 Z " fill="#F2F7F3" transform="translate(473.04296875,386.46875)"/>
<path d="M0 0 C2.92 0.6 4 1.07 5.64 3.55 C5.64 4.54 5.64 5.53 5.64 6.55 C4.98 6.55 4.32 6.55 3.64 6.55 C3.64 5.56 3.64 4.57 3.64 3.55 C-4.85 5.32 -10.48 10.32 -16.36 16.55 C-18.84 19.03 -19.67 18.84 -23.1 18.96 C-24.1 19 -25.1 19.04 -26.12 19.08 C-27.22 19.11 -28.31 19.15 -29.44 19.18 C-31.15 19.24 -31.15 19.24 -32.9 19.31 C-36.65 19.44 -40.41 19.56 -44.17 19.67 C-46.08 19.74 -46.08 19.74 -48.02 19.8 C-72.14 20.6 -96.23 20.78 -120.36 20.55 C-120.63 21.15 -120.91 21.75 -121.19 22.38 C-122.76 25.3 -124.96 27.28 -127.36 29.55 C-126.04 30.21 -124.72 30.87 -123.36 31.55 C-123.36 32.21 -123.36 32.87 -123.36 33.55 C-125.67 32.89 -127.98 32.23 -130.36 31.55 C-130.36 28.55 -130.36 28.55 -128.11 26.11 C-127.2 25.26 -126.29 24.42 -125.36 23.55 C-124.81 22.85 -124.27 22.15 -123.71 21.43 C-120.34 18.73 -117.08 18.9 -112.94 18.83 C-111.67 18.79 -111.67 18.79 -110.37 18.75 C-107.56 18.66 -104.76 18.6 -101.95 18.54 C-99.99 18.48 -98.04 18.42 -96.08 18.36 C-90.91 18.2 -85.75 18.07 -80.58 17.94 C-74.35 17.78 -68.11 17.6 -61.88 17.42 C-57.02 17.28 -52.16 17.14 -47.3 17.01 C-42.31 16.89 -37.33 16.73 -32.36 16.55 C-31.67 16.52 -30.99 16.5 -30.28 16.48 C-28.47 16.41 -26.66 16.32 -24.85 16.22 C-23.4 16.15 -23.4 16.15 -21.92 16.07 C-17.03 15.07 -14.12 11.6 -10.92 7.98 C-4.2 0.68 -4.2 0.68 0 0 Z " fill="#E1F6F6" transform="translate(418.35546875,555.453125)"/>
<path d="M0 0 C-5.04 2.31 -9.92 3.88 -15.31 5.12 C-20.28 6.19 -20.28 6.19 -25 8 C-25.33 8.99 -25.66 9.98 -26 11 C18.22 11 62.44 11 108 11 C108 11.33 108 11.66 108 12 C96.62 12.13 85.23 12.26 73.85 12.39 C68.56 12.45 63.27 12.51 57.98 12.57 C29.32 12.91 0.66 13.07 -28 13 C-28 10.69 -28 8.38 -28 6 C-24.09 4.8 -20.17 3.61 -16.25 2.44 C-15.14 2.1 -14.03 1.75 -12.88 1.4 C-11.81 1.08 -10.74 0.76 -9.64 0.43 C-8.16 -0.01 -8.16 -0.01 -6.66 -0.47 C-3.98 -1 -2.54 -0.91 0 0 Z " fill="#DCF3F6" transform="translate(313,460)"/>
<path d="M0 0 C-1.23 3.83 -3.52 5.13 -6.95 7.01 C-10.47 8.7 -14.13 9.75 -17.88 10.81 C-18.74 11.06 -19.6 11.31 -20.49 11.57 C-23.32 12.39 -26.16 13.2 -29 14 C-29.97 14.28 -30.95 14.55 -31.95 14.84 C-44.84 18.51 -57.77 22.05 -70.72 25.5 C-75.62 26.81 -80.52 28.14 -85.39 29.55 C-86.21 29.79 -87.03 30.02 -87.87 30.27 C-89.35 30.69 -90.83 31.13 -92.31 31.58 C-96.65 32.83 -100.49 33.48 -105 33 C-107.21 31.47 -107.21 31.47 -108.94 29.5 C-109.52 28.85 -110.11 28.2 -110.71 27.53 C-111.14 27.03 -111.56 26.52 -112 26 C-111.34 25.67 -110.68 25.34 -110 25 C-109.34 25.33 -108.68 25.66 -108 26 C-108 26.66 -108 27.32 -108 28 C-107.01 28 -106.02 28 -105 28 C-105 28.99 -105 29.98 -105 31 C-96.2 29.99 -88.15 27.96 -79.77 25.23 C-73.77 23.28 -67.71 21.65 -61.58 20.18 C-52.5 17.98 -43.59 15.42 -34.67 12.64 C-30.05 11.21 -25.43 9.82 -20.74 8.61 C-19.92 8.4 -19.11 8.19 -18.27 7.97 C-16.77 7.59 -15.27 7.22 -13.76 6.86 C-9.22 5.69 -3.97 0 0 0 Z " fill="#A3D6DF" transform="translate(673,354)"/>
<path d="M0 0 C0.99 0.5 0.99 0.5 2 1 C1.01 1.33 0.02 1.66 -1 2 C-1.69 3.32 -2.35 4.66 -3 6 C-4.63 7.68 -4.63 7.68 -6.56 9.31 C-7.27 9.91 -7.98 10.52 -8.71 11.14 C-11.7 13.57 -14.74 15.92 -17.82 18.23 C-20.41 20.33 -22.67 22.62 -25 25 C-40.76 41.09 -40.76 41.09 -48.58 47.02 C-51.6 49.49 -54.28 52.21 -57 55 C-71.99 70.26 -71.99 70.26 -82 73 C-85.06 72.75 -85.06 72.75 -87 72 C-84.18 70.51 -81.39 69.45 -78.38 68.44 C-72.03 65.91 -67.84 61.71 -63 57 C-61.45 55.56 -59.89 54.13 -58.33 52.69 C-56.66 51.17 -55 49.63 -53.34 48.09 C-51.18 46.09 -49.01 44.09 -46.84 42.09 C-40.87 36.59 -34.92 31.06 -29 25.5 C-26.98 23.61 -24.96 21.71 -22.94 19.82 C-21.68 18.64 -20.41 17.45 -19.15 16.26 C-13.01 10.48 -6.91 4.88 0 0 Z " fill="#E2F8F9" transform="translate(741,293)"/>
<path d="M0 0 C0.86 -0 1.72 -0 2.6 -0.01 C4.98 -0.01 7.35 -0.01 9.73 -0.01 C11.69 -0.01 11.69 -0.01 13.69 -0 C16.81 0.12 16.81 0.12 19.81 1.12 C20.31 2.61 20.31 2.61 20.81 4.12 C20.11 4.11 19.42 4.1 18.7 4.09 C17.79 4.08 16.88 4.07 15.94 4.06 C15.03 4.05 14.13 4.04 13.2 4.03 C10.8 3.96 10.8 3.96 8.81 5.12 C8.81 4.13 8.81 3.14 8.81 2.12 C7.75 2.17 7.75 2.17 6.68 2.22 C-14.99 3.1 -36.64 3.21 -58.31 3.19 C-59.38 3.19 -59.38 3.19 -60.47 3.18 C-69.38 3.17 -78.28 3.15 -87.19 3.12 C-86.86 2.46 -86.53 1.81 -86.19 1.12 C-26.08 0.03 -26.08 0.03 0 0 Z " fill="#A5D1D8" transform="translate(557.1875,469.875)"/>
<path d="M0 0 C0 3 0 3 -2.19 6.12 C-5.19 8.94 -7.38 9.41 -11.45 9.64 C-12.61 9.7 -13.77 9.77 -14.97 9.84 C-16.31 9.89 -17.65 9.95 -19 10 C-19.74 10.03 -20.47 10.06 -21.23 10.09 C-26.41 10.29 -31.59 10.45 -36.77 10.6 C-39.69 10.69 -42.62 10.78 -45.54 10.87 C-53.85 11.13 -62.16 11.38 -70.46 11.62 C-75.57 11.77 -80.67 11.93 -85.78 12.09 C-87.72 12.15 -89.66 12.21 -91.6 12.26 C-94.3 12.34 -97 12.42 -99.7 12.51 C-100.5 12.53 -101.3 12.55 -102.12 12.57 C-105.91 12.71 -107.78 12.85 -111 15 C-110.34 13.68 -109.68 12.36 -109 11 C-91.32 9.85 -73.65 8.9 -55.93 8.5 C-53.38 8.44 -50.83 8.37 -48.28 8.31 C-40.93 8.13 -33.58 7.99 -26.23 7.96 C-24.01 7.93 -21.79 7.91 -19.56 7.88 C-18.6 7.89 -17.64 7.9 -16.64 7.92 C-9.3 7.78 -5.29 4.97 0 0 Z " fill="#9CD5DF" transform="translate(405,563)"/>
<path d="M0 0 C1.91 0.25 1.91 0.25 4 1 C4.81 2.81 4.81 2.81 5.44 5 C6.28 7.26 6.28 7.26 8 9 C12.34 10.04 16.55 10.1 21 10 C21.14 9.38 21.28 8.75 21.43 8.11 C22.15 5.46 22.66 4.48 25 3 C28.69 3.31 28.69 3.31 32 4 C32.5 5.49 32.5 5.49 33 7 C44.45 8.72 44.45 8.72 56 9 C56.33 7.68 56.66 6.36 57 5 C57.99 5.33 58.98 5.66 60 6 C59.67 6.66 59.34 7.32 59 8 C59.99 8.66 60.98 9.32 62 10 C52.85 13.05 41.22 10.92 32 9 C31.67 8.01 31.34 7.02 31 6 C27.96 5.92 25.93 6.02 23 7 C23.02 7.8 23.04 8.61 23.06 9.44 C23 12 23 12 22 13 C19.3 13.07 16.63 13.09 13.94 13.06 C12.8 13.06 12.8 13.06 11.64 13.05 C9.76 13.04 7.88 13.02 6 13 C5.73 12.23 5.47 11.46 5.2 10.66 C4.84 9.66 4.49 8.66 4.12 7.62 C3.78 6.63 3.43 5.63 3.07 4.6 C2.15 1.9 2.15 1.9 0 0 Z " fill="#9BDCC4" transform="translate(573,806)"/>
<path d="M0 0 C0.99 0.33 1.98 0.66 3 1 C2.01 1.33 1.02 1.66 0 2 C0.01 2.58 0.02 3.16 0.04 3.76 C0.09 8.3 -0.08 12.53 -1 17 C-4.69 16.5 -6.6 15.9 -9 13 C-9.66 14.32 -10.32 15.64 -11 17 C-13.19 17.38 -13.19 17.38 -16 17 C-18.42 14.47 -20.43 12.14 -22 9 C-23.98 9 -25.96 9 -28 9 C-28 10.32 -28 11.64 -28 13 C-29.32 13 -30.64 13 -32 13 C-32 12.34 -32 11.68 -32 11 C-31.01 11 -30.02 11 -29 11 C-28.86 10.2 -28.71 9.39 -28.56 8.56 C-28 6 -28 6 -27 5 C-24.67 4.69 -24.67 4.69 -22 5 C-20.05 6.71 -20.05 6.71 -18.31 8.94 C-16.04 11.94 -16.04 11.94 -13 14 C-12.67 12.35 -12.34 10.7 -12 9 C-10.68 9 -9.36 9 -8 9 C-8 9.66 -8 10.32 -8 11 C-6.35 10.67 -4.7 10.34 -3 10 C-2.87 9.36 -2.73 8.72 -2.6 8.07 C-2.42 7.24 -2.24 6.41 -2.06 5.56 C-1.8 4.33 -1.8 4.33 -1.54 3.07 C-1 1 -1 1 0 0 Z " fill="#9CDBBB" transform="translate(516,803)"/>
<path d="M0 0 C5.32 -0.51 7.83 0.75 12 4 C12.46 4.53 12.91 5.05 13.38 5.59 C15.49 7.42 16.93 7.49 19.69 7.69 C20.5 7.75 21.3 7.82 22.14 7.89 C22.75 7.92 23.37 7.96 24 8 C24.33 5.36 24.66 2.72 25 0 C25.33 0 25.66 0 26 0 C26.12 7.75 26.12 7.75 25 10 C15.06 10.63 15.06 10.63 10.81 8.12 C9 6 9 6 9 4 C6.69 3.67 4.38 3.34 2 3 C1.55 3.76 1.09 4.53 0.62 5.31 C-2.77 10.93 -2.77 10.93 -5.23 11.68 C-8.28 12.03 -11.24 12.1 -14.31 12.06 C-15.38 12.05 -16.45 12.04 -17.55 12.04 C-18.36 12.02 -19.17 12.01 -20 12 C-20.99 9.03 -21.98 6.06 -23 3 C-20 6 -20 6 -18 9 C-14.64 9.37 -14.64 9.37 -10.88 9.19 C-9.59 9.16 -8.31 9.13 -6.99 9.11 C-5.51 9.05 -5.51 9.05 -4 9 C-3.67 6.69 -3.34 4.38 -3 2 C-2.01 2 -1.02 2 0 2 C0 1.34 0 0.68 0 0 Z " fill="#9BDDCD" transform="translate(547,807)"/>
<path d="M0 0 C3.14 0.35 4.79 0.84 7.31 2.81 C9 5 9 5 9 9 C9.96 8.78 10.91 8.57 11.89 8.34 C21.02 6.35 29.96 4.52 39.19 7 C43.39 8.1 46.68 8.15 51 8 C50.67 8.99 50.34 9.98 50 11 C46.04 11.17 42.72 11.01 38.88 10 C30.53 8.01 22.57 7.78 15 12 C12.28 12.25 9.74 12.14 7 12 C6.89 11.43 6.78 10.87 6.67 10.29 C6.51 9.55 6.35 8.82 6.19 8.06 C6.04 7.33 5.89 6.6 5.73 5.85 C5.49 5.24 5.25 4.63 5 4 C4.01 3.67 3.02 3.34 2 3 C1.01 4.98 0.02 6.96 -1 9 C-2.6 5.8 -1.03 3.28 0 0 Z " fill="#9ADED4" transform="translate(358,807)"/>
<path d="M0 0 C0.66 0 1.32 0 2 0 C0.9 3.3 0.05 4.05 -2.56 6.19 C-3.2 6.72 -3.84 7.25 -4.5 7.79 C-5 8.19 -5.49 8.59 -6 9 C-5.51 13.4 -4.12 14.98 -1 18 C-1 18.99 -1 19.98 -1 21 C-4.75 22.11 -8.5 23.21 -12.25 24.31 C-13.82 24.78 -13.82 24.78 -15.41 25.25 C-20.78 26.82 -26.15 28.35 -31.55 29.79 C-32.5 30.05 -33.45 30.31 -34.43 30.57 C-37.03 31 -38.54 30.85 -41 30 C-16.43 22.26 -16.43 22.26 -4 20 C-4.66 18.95 -5.32 17.9 -6 16.81 C-8.92 11.58 -8.92 11.58 -8 8 C-6.22 5.73 -4.31 3.74 -2 2 C-1.34 2 -0.68 2 0 2 C0 1.34 0 0.68 0 0 Z " fill="#A1D5DE" transform="translate(448,401)"/>
<path d="M0 0 C4.78 1.84 5.93 5.01 8.03 9.45 C9.16 12.43 9.42 14.84 9 18 C7.02 18.33 5.04 18.66 3 19 C2.49 16.96 1.99 14.92 1.5 12.88 C1.22 11.74 0.94 10.6 0.66 9.43 C0.04 6.19 -0.12 3.29 0 0 Z " fill="#BDC0BF" transform="translate(710,484)"/>
<path d="M0 0 C-2.84 2.84 -5.86 2.55 -9.69 2.88 C-24.07 4.28 -38.39 6.63 -52.34 10.41 C-57.17 11.48 -62.07 11.75 -67 12 C-57.74 5.83 -42.83 5.18 -32.06 3.31 C-30.83 3.1 -29.6 2.88 -28.33 2.66 C-18.86 1.06 -9.62 -0.18 0 0 Z " fill="#ABDDE5" transform="translate(472,82)"/>
<path d="M0 0 C0.66 0 1.32 0 2 0 C5.08 6.4 5.08 6.4 4.69 9.44 C4.46 9.95 4.23 10.47 4 11 C3.67 11 3.34 11 3 11 C3 9.35 3 7.7 3 6 C2.44 6.48 1.88 6.96 1.3 7.46 C-5.76 12.19 -18.73 10.1 -27 10 C-28.46 7.35 -29 6.11 -29 3 C-29.66 3 -30.32 3 -31 3 C-31 2.34 -31 1.68 -31 1 C-30.01 1 -29.02 1 -28 1 C-27.34 3.31 -26.68 5.62 -26 8 C-24.54 8.03 -23.08 8.05 -21.62 8.06 C-20.41 8.08 -20.41 8.08 -19.16 8.1 C-16.95 8.14 -16.95 8.14 -15 7 C-12.63 6.93 -10.25 6.92 -7.88 6.94 C-6.59 6.95 -5.31 6.96 -3.99 6.96 C-3 6.98 -2.02 6.99 -1 7 C-0.67 4.69 -0.34 2.38 0 0 Z " fill="#9DD7A8" transform="translate(811,808)"/>
<path d="M0 0 C1.32 0.99 2.64 1.98 4 3 C3.31 6.82 1.6 9.83 -0.31 13.19 C-0.91 14.25 -1.5 15.32 -2.11 16.42 C-4 19 -4 19 -6.23 19.86 C-6.81 19.91 -7.4 19.95 -8 20 C-7.45 14.99 -5.76 11.03 -3.44 6.62 C-3.11 5.98 -2.78 5.34 -2.44 4.68 C-1.63 3.12 -0.82 1.56 0 0 Z " fill="#5097C2" transform="translate(386,643)"/>
<path d="M0 0 C18.56 4.84 36.75 11.12 55 17 C54.34 17.66 53.68 18.32 53 19 C42.32 15.72 31.7 12.27 21.11 8.71 C17.87 7.62 14.62 6.55 11.36 5.51 C10.66 5.29 9.96 5.06 9.24 4.83 C7.38 4.23 5.51 3.64 3.64 3.04 C1 2 1 2 0 0 Z " fill="#9CCDD5" transform="translate(288,587)"/>
<path d="M0 0 C0.33 0 0.66 0 1 0 C1.22 2.7 1.33 4.44 -0.06 6.81 C-3.03 8.63 -5.6 8.25 -9 8 C-9.66 7.67 -10.32 7.34 -11 7 C-11 6.34 -11 5.68 -11 5 C-13.31 5.33 -15.62 5.66 -18 6 C-18.33 7.65 -18.66 9.3 -19 11 C-21.38 11.12 -21.38 11.12 -24 11 C-24.66 10.34 -25.32 9.68 -26 9 C-25.62 5.38 -25.62 5.38 -25 2 C-26.15 2.47 -27.31 2.95 -28.5 3.44 C-32.69 5.02 -36.55 5.6 -41 6 C-36.01 2.67 -30.08 0.41 -24 1 C-23.67 2.98 -23.34 4.96 -23 7 C-22.34 7 -21.68 7 -21 7 C-20.34 6.01 -19.68 5.02 -19 4 C-16.91 3.64 -16.91 3.64 -14.5 3.69 C-13.31 3.69 -13.31 3.69 -12.09 3.7 C-10 4 -10 4 -8 6 C-5.5 6.33 -5.5 6.33 -3 6 C-0.86 3.86 -0.57 2.87 0 0 Z " fill="#9DDCC9" transform="translate(470,809)"/>
<path d="M0 0 C4.69 -0.04 9.38 -0.03 14.07 0.03 C14.07 0.36 14.07 0.69 14.07 1.03 C4.64 2.02 -4.71 2.15 -14.18 2.09 C-15.62 2.09 -17.06 2.08 -18.5 2.08 C-21.97 2.07 -25.45 2.05 -28.93 2.03 C-29.21 2.63 -29.48 3.24 -29.77 3.86 C-31.33 6.78 -33.53 8.76 -35.93 11.03 C-34.61 11.69 -33.29 12.35 -31.93 13.03 C-31.93 13.69 -31.93 14.35 -31.93 15.03 C-34.24 14.37 -36.55 13.71 -38.93 13.03 C-38.93 10.03 -38.93 10.03 -36.68 7.59 C-35.77 6.75 -34.86 5.9 -33.93 5.03 C-33.33 4.33 -32.73 3.63 -32.11 2.91 C-29.34 0.53 -27.85 0.5 -24.23 0.42 C-23.11 0.39 -21.99 0.36 -20.84 0.32 C-19.65 0.31 -18.46 0.29 -17.24 0.28 C-16.04 0.25 -14.83 0.22 -13.59 0.19 C-9.06 0.09 -4.53 0.05 0 0 Z " fill="#D3F3F5" transform="translate(326.9296875,573.97021484375)"/>
<path d="M0 0 C0.66 0.33 1.32 0.66 2 1 C0.5 2.52 -1 4.04 -2.5 5.56 C-3.75 6.83 -3.75 6.83 -5.03 8.13 C-7.86 10.92 -10.85 13.5 -13.85 16.1 C-17.65 19.45 -21.32 22.95 -25 26.44 C-25.77 27.17 -26.55 27.9 -27.35 28.65 C-29.23 30.43 -31.12 32.22 -33 34 C-33 29.8 -30.79 27.88 -28 25 C-26.01 23.18 -23.97 21.42 -21.92 19.66 C-20.32 18.28 -18.81 16.81 -17.31 15.31 C-15 13 -15 13 -12.25 10.81 C-9.93 9.2 -9.93 9.2 -9 7 C-8.01 7 -7.02 7 -6 7 C-5.67 6.01 -5.34 5.02 -5 4 C-3.38 2.61 -1.71 1.27 0 0 Z " fill="#9CD5DC" transform="translate(733,297)"/>
<path d="M0 0 C0.33 0.99 0.66 1.98 1 3 C0.53 3.52 0.05 4.04 -0.43 4.58 C-9.74 14.88 -9.74 14.88 -18 26 C-18.66 26 -19.32 26 -20 26 C-20.26 26.56 -20.51 27.12 -20.77 27.7 C-22.16 30.29 -23.8 32.45 -25.62 34.75 C-26.26 35.55 -26.89 36.35 -27.54 37.17 C-28.02 37.78 -28.5 38.38 -29 39 C-29 34.61 -26.39 32.1 -23.81 28.75 C-23.28 28.05 -22.75 27.34 -22.2 26.62 C-17.32 20.26 -12.12 14.2 -6.81 8.21 C-4.45 5.54 -2.2 2.81 0 0 Z " fill="#A8DCE4" transform="translate(193,220)"/>
<path d="M0 0 C0.66 0.33 1.32 0.66 2 1 C1.34 1.99 0.68 2.98 0 4 C-0.66 4 -1.32 4 -2 4 C-2 4.66 -2 5.32 -2 6 C-11.49 6.11 -20.96 6.01 -30.44 5.62 C-31.35 5.59 -32.27 5.56 -33.22 5.53 C-34.07 5.49 -34.93 5.45 -35.81 5.41 C-36.57 5.38 -37.33 5.35 -38.11 5.32 C-40 5 -40 5 -42 3 C-37.88 2.77 -33.75 2.57 -29.62 2.38 C-28.45 2.31 -27.27 2.25 -26.06 2.18 C-24.94 2.13 -23.82 2.08 -22.66 2.02 C-21.11 1.94 -21.11 1.94 -19.52 1.86 C-17 2 -17 2 -15 4 C-12.11 4.46 -12.11 4.46 -8.88 4.62 C-7.23 4.74 -7.23 4.74 -5.55 4.85 C-4.29 4.93 -4.29 4.93 -3 5 C-3 4.34 -3 3.68 -3 3 C-1.5 1.38 -1.5 1.38 0 0 Z " fill="#9DDED5" transform="translate(778,811)"/>
<path d="M0 0 C1.32 0 2.64 0 4 0 C3.67 0.66 3.34 1.32 3 2 C2.34 1.67 1.68 1.34 1 1 C0.9 1.61 0.8 2.23 0.7 2.86 C-0.49 9.33 -0.49 9.33 -2.56 12.06 C-6.33 13.51 -10.02 13.23 -14 13 C-14.33 12.34 -14.66 11.68 -15 11 C-15.99 10.67 -16.98 10.34 -18 10 C-18.33 11.32 -18.66 12.64 -19 14 C-19.99 14 -20.98 14 -22 14 C-24.08 11.12 -25.35 8.49 -26 5 C-27.32 5 -28.64 5 -30 5 C-29.67 4.01 -29.34 3.02 -29 2 C-27.19 2.12 -27.19 2.12 -25 3 C-23.95 4.97 -22.95 6.98 -22 9 C-21.01 9.66 -20.02 10.32 -19 11 C-19 10.34 -19 9.68 -19 9 C-15.28 8.8 -14.23 8.85 -11 11 C-9.35 11 -7.7 11 -6 11 C-4.02 7.37 -2.04 3.74 0 0 Z " fill="#9BDDD0" transform="translate(696,804)"/>
<path d="M0 0 C-6.36 3.45 -12.87 6.11 -19.67 8.54 C-25.63 10.73 -31.21 13.49 -36.77 16.55 C-41.49 19.06 -41.49 19.06 -44.45 18.72 C-45.22 18.36 -45.22 18.36 -46 18 C-35.93 12.69 -25.53 8.3 -15 4 C-13.97 3.57 -13.97 3.57 -12.91 3.14 C-2.35 -1.18 -2.35 -1.18 0 0 Z " fill="#AADCE5" transform="translate(370,105)"/>
<path d="M0 0 C0.91 0.01 1.82 0.02 2.76 0.03 C3.81 0.04 3.81 0.04 4.88 0.06 C4.88 0.39 4.88 0.72 4.88 1.06 C3.66 1 2.44 0.94 1.19 0.88 C-7.93 1.85 -15.49 11.28 -21.5 17.62 C-25.54 21.79 -29.28 22.94 -35.06 23.19 C-35.74 23.15 -36.42 23.11 -37.12 23.06 C-34.75 20.69 -32.99 20.26 -29.81 19.25 C-25.11 17.59 -22.36 15.96 -19.12 12.06 C-7.28 -0.09 -7.28 -0.09 0 0 Z " fill="#A0D6DE" transform="translate(556.125,377.9375)"/>
<path d="M0 0 C0.66 0.33 1.32 0.66 2 1 C2.08 2.56 2.14 4.12 2.19 5.69 C2.24 6.99 2.24 6.99 2.29 8.32 C1.53 15.27 -4.32 19.37 -9.19 23.81 C-9.94 24.51 -10.69 25.2 -11.46 25.91 C-13.3 27.61 -15.15 29.31 -17 31 C-17.66 30.34 -18.32 29.68 -19 29 C-19 27.68 -19 26.36 -19 25 C-17.3 24.54 -17.3 24.54 -15.56 24.06 C-8.85 21.58 -3.9 15.84 0 10 C0.24 7.48 0.24 7.48 0.12 4.81 C0.11 3.91 0.09 3.01 0.07 2.08 C0.05 1.39 0.02 0.71 0 0 Z " fill="#9DCCD4" transform="translate(732,478)"/>
<path d="M0 0 C0.92 -0.01 1.83 -0.03 2.78 -0.04 C10.45 0.07 17.57 1.73 23.5 6.81 C23.95 7.39 24.41 7.97 24.88 8.56 C22.11 7.69 19.41 6.83 16.81 5.54 C7.7 1.2 -3.03 1.1 -12.69 3.88 C-14.18 4.4 -15.66 4.97 -17.12 5.56 C-18.19 5.99 -18.19 5.99 -19.29 6.43 C-20.91 7.11 -22.52 7.83 -24.12 8.56 C-23.12 5.56 -23.12 5.56 -21.18 4.18 C-14.06 0.8 -7.82 0.06 0 0 Z " fill="#A5DBE3" transform="translate(308.125,265.4375)"/>
<path d="M0 0 C2.06 0.44 2.06 0.44 4 1 C3.67 2.32 3.34 3.64 3 5 C2.34 5 1.68 5 1 5 C0.47 5.98 -0.07 6.95 -0.62 7.96 C-3 11 -3 11 -6.79 11.76 C-8.21 11.77 -9.64 11.74 -11.06 11.69 C-11.78 11.7 -12.5 11.72 -13.24 11.73 C-15.35 11.7 -15.35 11.7 -19 11 C-21 8.58 -22 7.16 -22 4 C-21.34 4 -20.68 4 -20 4 C-19.34 5.32 -18.68 6.64 -18 8 C-13.38 8 -8.76 8 -4 8 C-3.53 6.87 -3.05 5.73 -2.56 4.56 C-1 1 -1 1 0 0 Z " fill="#9CD7A5" transform="translate(667,808)"/>
<path d="M0 0 C-2.69 1.42 -5.3 2.49 -8.2 3.37 C-9.01 3.61 -9.82 3.86 -10.65 4.11 C-11.51 4.36 -12.37 4.61 -13.25 4.88 C-14.13 5.14 -15.01 5.4 -15.92 5.67 C-21.62 7.34 -27.32 8.95 -33.06 10.44 C-34.33 10.77 -35.6 11.09 -36.91 11.43 C-40 12 -40 12 -43 11 C-41.71 9.62 -40.37 8.29 -39 7 C-38.34 7 -37.68 7 -37 7 C-37 7.66 -37 8.32 -37 9 C-36.35 8.71 -35.69 8.42 -35.02 8.12 C-31.32 6.75 -27.6 5.91 -23.75 5.06 C-19.02 3.99 -14.39 2.9 -9.81 1.25 C-6.45 0.04 -3.6 -0.28 0 0 Z " fill="#A2D5DE" transform="translate(519,401)"/>
<path d="M0 0 C0.68 0.04 1.36 0.07 2.06 0.11 C2.74 0.14 3.42 0.16 4.12 0.19 C6.06 0.43 6.06 0.43 9.06 1.43 C9.36 8.9 8.22 16.06 7.06 23.43 C6.73 23.43 6.4 23.43 6.06 23.43 C5.73 16.83 5.4 10.23 5.06 3.43 C1.76 3.76 -1.54 4.09 -4.94 4.43 C-1.94 0.43 -1.94 0.43 0 0 Z " fill="#558AAB" transform="translate(569.9375,472.57421875)"/>
<path d="M0 0 C1.32 0.33 2.64 0.66 4 1 C4 1.66 4 2.32 4 3 C4.66 3 5.32 3 6 3 C6.43 3.62 6.87 4.24 7.31 4.88 C9.44 7.56 10.68 8.13 14 9 C17.01 9.15 19.99 9.12 23 9 C23.33 8.01 23.66 7.02 24 6 C24.99 6 25.98 6 27 6 C26.62 8.44 26.62 8.44 26 11 C21.28 13.36 15.22 12.33 10.31 11 C5.98 8.38 3 5.06 0 1 C0 0.67 0 0.34 0 0 Z " fill="#9CDDCD" transform="translate(305,807)"/>
<path d="M0 0 C6.65 0.37 12.53 2.04 18 6 C18.79 8.17 18.79 8.17 19 10 C18.67 9.34 18.34 8.68 18 8 C16.35 7.29 14.68 6.63 13 6 C11.55 5.23 11.55 5.23 10.06 4.44 C6.98 2.99 4.37 2.4 1 2 C1.5 2.54 1.99 3.07 2.5 3.62 C4.41 6.65 4.46 8.48 4 12 C3.01 12.66 2.02 13.32 1 14 C-0.65 12.02 -2.3 10.04 -4 8 C-2.02 8.66 -0.04 9.32 2 10 C1.5 8.92 1.5 8.92 1 7.81 C-0.01 4.98 -0.17 2.97 0 0 Z " fill="#9DDDCE" transform="translate(208,805)"/>
<path d="M0 0 C1.65 0 3.3 0 5 0 C7.23 3.99 8 6.5 8 11 C8.99 11.66 9.98 12.32 11 13 C9.06 13.56 9.06 13.56 7 14 C5.26 12.26 5.34 9.79 4.94 7.44 C4.76 6.43 4.58 5.41 4.4 4.37 C4.27 3.59 4.14 2.81 4 2 C0.31 3.23 -0.72 4.94 -3 8 C-5.38 7.75 -5.38 7.75 -8 7 C-9.31 4.94 -9.31 4.94 -10 3 C-7.36 3.33 -4.72 3.66 -2 4 C-1.34 2.68 -0.68 1.36 0 0 Z " fill="#9ADDCE" transform="translate(345,804)"/>
<path d="M0 0 C0.97 3.41 0.89 5.17 -0.25 8.56 C-1.43 12.21 -2.52 15.85 -3.5 19.56 C-4.81 24.44 -6.34 29.23 -8 34 C-8.66 34 -9.32 34 -10 34 C-10.33 34.99 -10.66 35.98 -11 37 C-10.41 31.99 -9.34 27.56 -7.71 22.75 C-7.49 22.1 -7.27 21.44 -7.05 20.77 C-6.35 18.7 -5.64 16.63 -4.94 14.56 C-4.46 13.15 -3.98 11.74 -3.51 10.32 C-2.34 6.88 -1.17 3.44 0 0 Z " fill="#AADDE4" transform="translate(108,359)"/>
<path d="M0 0 C0.66 0.33 1.32 0.66 2 1 C1.27 1.72 0.55 2.45 -0.2 3.2 C-1.94 4.93 -3.67 6.68 -5.39 8.43 C-12.27 15.38 -19.46 21.78 -27 28 C-27.33 27.34 -27.66 26.68 -28 26 C-27.34 26 -26.68 26 -26 26 C-26 25.34 -26 24.68 -26 24 C-24.39 22.41 -24.39 22.41 -22.25 20.62 C-19.93 18.66 -17.75 16.74 -15.62 14.56 C-14 13 -14 13 -12 13 C-11.69 12.16 -11.69 12.16 -11.38 11.31 C-9.42 8.03 -7.06 6.29 -4 4 C-3.34 4 -2.68 4 -2 4 C-1.34 2.68 -0.68 1.36 0 0 Z " fill="#D2E6E8" transform="translate(776,335)"/>
<path d="M0 0 C1.32 0.66 2.64 1.32 4 2 C3.44 2.23 2.88 2.46 2.31 2.7 C-0.63 4.35 -2.6 6.45 -4.94 8.88 C-8.13 12.18 -11.25 15.34 -15 18 C-15.99 18 -16.98 18 -18 18 C-18 14.37 -18 10.74 -18 7 C-17.67 7 -17.34 7 -17 7 C-17 9.64 -17 12.28 -17 15 C-11.54 11.72 -7.4 7.57 -3 3 C-2 2 -1 1 0 0 Z " fill="#9BC9D4" transform="translate(593,498)"/>
<path d="M0 0 C2.81 2.38 2.81 2.38 5 5 C8.58 7.39 10.64 7.52 14.84 7.47 C17.4 7.14 17.4 7.14 19.56 4 C20.04 3.01 20.51 2.02 21 1 C21 4.2 20.26 6.09 19 9 C16.71 9.05 14.42 9.09 12.12 9.12 C10.21 9.16 10.21 9.16 8.26 9.2 C5 9 5 9 3 7 C3 6.01 3 5.02 3 4 C-0.15 2.95 -2.39 2.9 -5.69 2.94 C-6.68 2.95 -7.68 2.96 -8.7 2.96 C-9.46 2.98 -10.22 2.99 -11 3 C-11 2.34 -11 1.68 -11 1 C-7.29 -0.24 -3.85 -0.69 0 0 Z " fill="#9ADDD3" transform="translate(644,808)"/>
<path d="M0 0 C0.33 0 0.66 0 1 0 C1.08 2.69 1.14 5.37 1.19 8.06 C1.21 8.81 1.24 9.57 1.26 10.34 C1.37 18.68 -1.44 23.89 -7.19 29.94 C-8.09 30.9 -8.99 31.85 -9.92 32.84 C-10.95 33.91 -10.95 33.91 -12 35 C-12.99 34.67 -13.98 34.34 -15 34 C-14.38 33.75 -13.76 33.5 -13.12 33.25 C-10.56 31.74 -10.28 30.63 -9 28 C-7.53 26.02 -5.99 24.11 -4.44 22.2 C-1.24 17.31 -0.7 12.36 -0.38 6.62 C-0.3 5.38 -0.23 4.13 -0.15 2.85 C-0.1 1.91 -0.05 0.97 0 0 Z " fill="#A3D2DB" transform="translate(786,308)"/>
<path d="M0 0 C-2.88 1.92 -4.94 2.7 -8.23 3.66 C-9.26 3.96 -10.29 4.26 -11.36 4.57 C-12.97 5.03 -12.97 5.03 -14.62 5.5 C-15.68 5.81 -16.74 6.12 -17.82 6.43 C-23.85 8.17 -29.86 9.71 -36 11 C-33.8 7.7 -33.35 7.51 -29.75 6.46 C-28.89 6.21 -28.04 5.96 -27.15 5.7 C-26.26 5.45 -25.36 5.2 -24.44 4.94 C-23.57 4.68 -22.7 4.43 -21.8 4.16 C-6.1 -0.39 -6.1 -0.39 0 0 Z " fill="#A1D7DF" transform="translate(407,432)"/>
<path d="M0 0 C0.66 0.66 1.32 1.32 2 2 C-0.58 2.87 -3.16 3.72 -5.75 4.56 C-6.48 4.81 -7.21 5.06 -7.96 5.31 C-8.67 5.54 -9.38 5.77 -10.11 6 C-10.76 6.22 -11.41 6.43 -12.08 6.65 C-14.33 7.06 -15.83 6.69 -18 6 C-12.94 1.19 -7.24 -2.55 0 0 Z " fill="#E7E8E4" transform="translate(552,391)"/>
<path d="M0 0 C0 3 0 3 -2.46 5.57 C-3.57 6.57 -4.69 7.57 -5.81 8.56 C-6.69 9.35 -6.69 9.35 -7.58 10.15 C-8.78 11.24 -9.99 12.32 -11.2 13.4 C-13.43 15.39 -15.64 17.4 -17.85 19.41 C-19.89 21.28 -21.95 23.14 -24 25 C-24.66 24.67 -25.32 24.34 -26 24 C-20.19 18.08 -14.31 12.38 -8 7 C-6.5 5.69 -5 4.38 -3.5 3.06 C-2.33 2.04 -1.17 1.02 0 0 Z " fill="#A6DBE4" transform="translate(232,183)"/>
<path d="M0 0 C2.35 0.26 4.7 0.49 7.05 0.72 C9 1 9 1 11 2 C13.71 2.23 16.41 2.42 19.12 2.56 C20.26 2.63 20.26 2.63 21.41 2.69 C23.27 2.8 25.14 2.9 27 3 C27 3.33 27 3.66 27 4 C7.35 4.19 7.35 4.19 -1 3 C-1.33 2.67 -1.66 2.34 -2 2 C-5.63 1.81 -5.63 1.81 -9 3 C-8.67 2.01 -8.34 1.02 -8 0 C-5.1 -1.45 -3.18 -0.58 0 0 Z " fill="#9DD8A9" transform="translate(727,813)"/>
<path d="M0 0 C0.99 0.33 1.98 0.66 3 1 C2.35 1.53 2.35 1.53 1.69 2.06 C-0.64 4.73 -1.63 7.75 -3 11 C-4.18 13.21 -4.18 13.21 -6 15 C-9.14 15.39 -9.14 15.39 -12.69 15.25 C-14.46 15.2 -14.46 15.2 -16.26 15.14 C-17.17 15.09 -18.07 15.05 -19 15 C-19 14.01 -19 13.02 -19 12 C-18.01 12 -17.02 12 -16 12 C-16 12.66 -16 13.32 -16 14 C-9.86 12.57 -9.86 12.57 -5.19 8.69 C-4.8 7.8 -4.4 6.91 -4 6 C-2.68 3.99 -1.34 1.99 0 0 Z " fill="#9BDDD0" transform="translate(266,804)"/>
<path d="M0 0 C1.65 0 3.3 0 5 0 C5.33 2.31 5.66 4.62 6 7 C7.65 5.68 9.3 4.36 11 3 C11.66 3.33 12.32 3.66 13 4 C10.69 5.98 8.38 7.96 6 10 C4.51 5.54 4.51 5.54 3 1 C2.34 1 1.68 1 1 1 C0.67 3.31 0.34 5.62 0 8 C-4.62 8 -9.24 8 -14 8 C-14 7.67 -14 7.34 -14 7 C-10.04 7 -6.08 7 -2 7 C-1.34 4.69 -0.68 2.38 0 0 Z " fill="#9DDBD2" transform="translate(810,807)"/>
<path d="M0 0 C9.86 1.73 19.75 4.11 29 8 C28.01 8.99 27.02 9.98 26 11 C25.47 10.72 24.94 10.44 24.39 10.15 C16.59 6.39 8.23 3.65 0 1 C0 0.67 0 0.34 0 0 Z " fill="#A2CED7" transform="translate(343,605)"/>
<path d="M0 0 C0.99 0 1.98 0 3 0 C5.1 2.43 6.91 5.01 8.77 7.62 C11.36 10.38 13.37 11.1 17 12 C17 12.33 17 12.66 17 13 C14.44 13.5 14.44 13.5 11 13 C8.94 11.05 7.25 8.99 5.52 6.75 C5.02 6.17 4.52 5.6 4 5 C3.34 5 2.68 5 2 5 C1.01 7.64 0.02 10.28 -1 13 C-1.97 9.13 -1.98 7.92 -1.06 4.25 C-0.87 3.45 -0.67 2.65 -0.47 1.83 C-0.32 1.22 -0.16 0.62 0 0 Z " fill="#9AD8A2" transform="translate(302,806)"/>
<path d="M0 0 C7.59 0.38 11.38 4.2 16.75 9.19 C16.42 10.18 16.09 11.17 15.75 12.19 C15.03 11.44 14.31 10.7 13.56 9.94 C12.63 9.03 11.71 8.12 10.75 7.19 C9.99 6.42 9.22 5.66 8.44 4.88 C4.87 2.64 1.8 2.63 -2.25 3.19 C-5.62 4.09 -5.62 4.09 -8.25 5.19 C-7.92 3.87 -7.59 2.55 -7.25 1.19 C-6.26 1.19 -5.27 1.19 -4.25 1.19 C-3.25 0.19 -3.25 0.19 0 0 Z " fill="#A0CFDA" transform="translate(715.25,465.8125)"/>
<path d="M0 0 C1.88 0.25 1.88 0.25 4 1 C5.25 3.06 5.25 3.06 6 5 C3.53 3.51 3.53 3.51 1 2 C0.94 2.68 0.88 3.36 0.81 4.06 C-0.29 8.03 -2.49 10.79 -5 14 C-7.38 13.75 -7.38 13.75 -10 13 C-11.31 10.94 -11.31 10.94 -12 9 C-11.34 9 -10.68 9 -10 9 C-10 9.66 -10 10.32 -10 11 C-7.13 10.6 -6.21 10.27 -4.38 7.94 C-3.92 7.3 -3.47 6.66 -3 6 C-2.34 6 -1.68 6 -1 6 C-0.67 4.02 -0.34 2.04 0 0 Z " fill="#9CDECE" transform="translate(239,806)"/>
<path d="M0 0 C3 0 3 0 4.57 1.36 C9.72 7.43 9.72 7.43 10 12 C9.34 12 8.68 12 8 12 C7.71 11.2 7.42 10.39 7.12 9.56 C6.27 6.87 6.27 6.87 4 6 C4 5.34 4 4.68 4 4 C3.01 4.5 3.01 4.5 2 5 C1.31 7.58 1.31 7.58 0.88 10.56 C0.71 11.57 0.54 12.59 0.37 13.63 C0.25 14.41 0.12 15.19 0 16 C-1.65 16 -3.3 16 -5 16 C-3.68 15.67 -2.36 15.34 -1 15 C-0.67 10.05 -0.34 5.1 0 0 Z " fill="#9AD6A4" transform="translate(516,805)"/>
<path d="M0 0 C0.33 0.66 0.66 1.32 1 2 C0.56 2.52 0.13 3.04 -0.32 3.58 C-4.4 8.63 -7.58 13.72 -10.58 19.47 C-12.4 22.7 -14.5 25.27 -17 28 C-17 18.8 -5.5 7.06 0 0 Z " fill="#ACDCE4" transform="translate(162,259)"/>
<path d="M0 0 C0.33 0.66 0.66 1.32 1 2 C-1.02 1.97 -3.04 1.93 -5.05 1.9 C-7.08 1.87 -7.08 1.87 -9 3 C-8.34 3.33 -7.68 3.66 -7 4 C-7 4.99 -7 5.98 -7 7 C-9.71 7.9 -11.24 8.12 -14.01 8.1 C-15.15 8.09 -15.15 8.09 -16.31 8.09 C-17.09 8.08 -17.88 8.07 -18.69 8.06 C-19.48 8.06 -20.28 8.05 -21.1 8.05 C-23.07 8.04 -25.03 8.02 -27 8 C-27 7.67 -27 7.34 -27 7 C-22.05 6.67 -17.1 6.34 -12 6 C-12.33 5.01 -12.66 4.02 -13 3 C-9.22 -0.95 -5.08 -0.29 0 0 Z " fill="#9CD8A8" transform="translate(644,810)"/>
<path d="M0 0 C1.91 0.25 1.91 0.25 4 1 C4.81 2.81 4.81 2.81 5.44 5 C6.28 7.26 6.28 7.26 8 9 C12.34 10.04 16.55 10.1 21 10 C21 10.66 21 11.32 21 12 C16.38 12 11.76 12 7 12 C5.76 9.46 4.53 6.92 3.29 4.38 C2.09 1.9 2.09 1.9 0 0 Z " fill="#9BDDD4" transform="translate(573,806)"/>
<path d="M0 0 C0.99 0.33 1.98 0.66 3 1 C2.01 1.33 1.02 1.66 0 2 C0.01 2.58 0.02 3.16 0.04 3.76 C0.09 8.3 -0.08 12.53 -1 17 C-2.65 16.67 -4.3 16.34 -6 16 C-6.33 14.35 -6.66 12.7 -7 11 C-5.68 10.67 -4.36 10.34 -3 10 C-2.87 9.36 -2.73 8.72 -2.6 8.07 C-2.42 7.24 -2.24 6.41 -2.06 5.56 C-1.89 4.74 -1.71 3.92 -1.54 3.07 C-1 1 -1 1 0 0 Z " fill="#9DDECD" transform="translate(516,803)"/>
<path d="M0 0 C0 3 0 3 -1.38 4.58 C-2.01 5.13 -2.63 5.68 -3.28 6.25 C-4.3 7.16 -4.3 7.16 -5.33 8.09 C-6.78 9.36 -8.22 10.64 -9.67 11.91 C-10.34 12.51 -11.02 13.12 -11.72 13.75 C-12.66 14.58 -12.66 14.58 -13.62 15.42 C-15.33 17.03 -15.33 17.03 -15 20 C-16.32 19.34 -17.64 18.68 -19 18 C-14.67 12.5 -9.87 8.26 -4.39 3.92 C-1.99 2.07 -1.99 2.07 0 0 Z " fill="#D5EAF3" transform="translate(448,620)"/>
<path d="M0 0 C0.66 0.33 1.32 0.66 2 1 C1.59 1.62 1.18 2.23 0.76 2.87 C-2.88 8.59 -4.92 13.3 -6 20 C-9.63 20.33 -13.26 20.66 -17 21 C-17 20.34 -17 19.68 -17 19 C-13.7 18.34 -10.4 17.68 -7 17 C-6.71 15.62 -6.42 14.24 -6.12 12.81 C-5.37 9.38 -4.45 6.22 -3 3 C-2.34 3 -1.68 3 -1 3 C-0.67 2.01 -0.34 1.02 0 0 Z " fill="#A8DBE3" transform="translate(271,284)"/>
<path d="M0 0 C0.66 0.33 1.32 0.66 2 1 C-16.67 16.94 -16.67 16.94 -25 20 C-21.61 16.47 -18.13 13.46 -14.19 10.56 C-13.14 9.79 -12.1 9.02 -11.03 8.23 C-9.53 7.12 -9.53 7.12 -8 6 C-6.42 4.81 -4.83 3.63 -3.25 2.44 C-2.17 1.62 -1.08 0.81 0 0 Z " fill="#A9DDE2" transform="translate(268,155)"/>
<path d="M0 0 C2.59 0.35 4.58 0.74 6.81 2.12 C8.64 5.01 8.19 7.68 8 11 C10.64 10.67 13.28 10.34 16 10 C15.67 10.66 15.34 11.32 15 12 C12.36 12 9.72 12 7 12 C6.89 11.43 6.78 10.87 6.67 10.29 C6.51 9.55 6.35 8.82 6.19 8.06 C6.04 7.33 5.89 6.6 5.73 5.85 C5.49 5.24 5.25 4.63 5 4 C4.01 3.67 3.02 3.34 2 3 C1.01 4.98 0.02 6.96 -1 9 C-2.6 5.8 -1.03 3.28 0 0 Z " fill="#9CDCC1" transform="translate(358,807)"/>
<path d="M0 0 C0.66 0 1.32 0 2 0 C2.26 1.43 2.26 1.43 2.52 2.89 C2.88 4.77 2.88 4.77 3.25 6.69 C3.48 7.93 3.71 9.17 3.95 10.45 C5.05 14.16 6.4 16.19 9 19 C7.14 18.77 7.14 18.77 5 18 C3.77 16.07 3.77 16.07 2.81 13.69 C2.49 12.91 2.17 12.13 1.83 11.32 C1.08 9.23 0.49 7.17 0 5 C-1.98 5.99 -1.98 5.99 -4 7 C-2.8 4.51 -1.55 2.32 0 0 Z " fill="#9BD8A6" transform="translate(284,802)"/>
<path d="M0 0 C0.66 0 1.32 0 2 0 C2.33 0.99 2.66 1.98 3 3 C4.32 3 5.64 3 7 3 C6.34 5.64 5.68 8.28 5 11 C4.67 9.68 4.34 8.36 4 7 C2.35 6.67 0.7 6.34 -1 6 C-1.33 6.99 -1.66 7.98 -2 9 C-3 6 -3 6 -1.56 2.81 C-1.05 1.88 -0.53 0.96 0 0 Z " fill="#99D8BB" transform="translate(267,805)"/>
<path d="M0 0 C10.29 1.35 20.07 4.11 30 7 C30 7.33 30 7.66 30 8 C8.84 5.95 8.84 5.95 0 1 C0 0.67 0 0.34 0 0 Z " fill="#A8DCE5" transform="translate(600,89)"/>
<path d="M0 0 C1.98 0 3.96 0 6 0 C6 0.66 6 1.32 6 2 C6.93 2.25 7.86 2.5 8.81 2.75 C12.16 4.06 13.19 4.98 15 8 C14.67 8.66 14.34 9.32 14 10 C11.16 8.84 9.69 7.68 7.5 5.44 C5.14 3.14 4.18 2.35 1 2 C0.67 2.99 0.34 3.98 0 5 C0 3.35 0 1.7 0 0 Z " fill="#9ADDCC" transform="translate(469,804)"/>
<path d="M0 0 C0.33 0.66 0.66 1.32 1 2 C-8.58 13.52 -8.58 13.52 -14 17 C-14.99 16.67 -15.98 16.34 -17 16 C-16.19 15.26 -15.38 14.53 -14.55 13.77 C-13.47 12.78 -12.39 11.8 -11.31 10.81 C-10.52 10.09 -10.52 10.09 -9.71 9.35 C-6.38 6.31 -3.16 3.21 0 0 Z " fill="#4E83A7" transform="translate(433,598)"/>
<path d="M0 0 C0.66 0.33 1.32 0.66 2 1 C1.01 2.49 1.01 2.49 0 4 C-0.66 4 -1.32 4 -2 4 C-2 4.66 -2 5.32 -2 6 C-4.73 6.03 -7.46 6.05 -10.19 6.06 C-10.96 6.07 -11.73 6.08 -12.52 6.09 C-16.49 6.1 -20.13 5.99 -24 5 C-23.67 4.34 -23.34 3.68 -23 3 C-20.67 2.96 -18.33 2.96 -16 3 C-15.67 3.33 -15.34 3.66 -15 4 C-12.98 4.23 -10.96 4.41 -8.94 4.56 C-7.83 4.65 -6.73 4.73 -5.59 4.82 C-4.74 4.88 -3.88 4.94 -3 5 C-3 4.34 -3 3.68 -3 3 C-1.5 1.38 -1.5 1.38 0 0 Z " fill="#9CDBBB" transform="translate(778,811)"/>
<path d="M0 0 C3.77 1.75 5.71 3.45 8 7 C8.75 10.81 8.75 10.81 9 14 C8.34 13.34 7.68 12.68 7 12 C7 10.68 7 9.36 7 8 C6.34 8 5.68 8 5 8 C4.34 6.35 3.68 4.7 3 3 C-0.27 4.72 -0.27 4.72 -0.94 8.06 C-1.29 9.03 -1.64 10 -2 11 C-4.12 11.88 -4.12 11.88 -6 12 C-5.54 11.6 -5.08 11.2 -4.61 10.79 C-2.73 8.7 -2.13 6.99 -1.31 4.31 C-1.06 3.5 -0.81 2.7 -0.55 1.86 C-0.37 1.25 -0.19 0.63 0 0 Z " fill="#99D7A8" transform="translate(697,805)"/>
<path d="M0 0 C1.18 -0.03 1.18 -0.03 2.38 -0.05 C3.4 0.13 3.4 0.13 4.44 0.31 C5.1 1.3 5.76 2.29 6.44 3.31 C5.85 3.12 5.27 2.94 4.67 2.74 C1.65 2.07 -0.48 1.86 -3.56 2.31 C-8.03 5.2 -11.77 8.6 -15.56 12.31 C-16.22 11.98 -16.88 11.65 -17.56 11.31 C-15.96 9.85 -14.36 8.39 -12.75 6.94 C-11.86 6.13 -10.96 5.31 -10.04 4.48 C-6.59 1.47 -4.56 0.02 0 0 Z " fill="#DEF7F8" transform="translate(556.5625,378.6875)"/>
<path d="M0 0 C1.15 1.15 2.3 2.3 3.45 3.45 C4.51 4.52 5.59 5.57 6.68 6.61 C10.96 10.75 14.56 15.15 18 20 C17.67 20.66 17.34 21.32 17 22 C14.92 19.61 12.83 17.21 10.75 14.81 C9.87 13.8 9.87 13.8 8.97 12.77 C0 2.44 0 2.44 0 0 Z " fill="#ACDCE3" transform="translate(835,226)"/>
<path d="M0 0 C9.16 1.28 17.45 4.63 26 8 C22.46 9.18 21.41 8.74 17.93 7.64 C16.95 7.33 15.97 7.02 14.96 6.7 C13.95 6.36 12.93 6.03 11.88 5.69 C10.85 5.37 9.82 5.04 8.76 4.71 C3.1 2.89 3.1 2.89 1 2 C0.67 1.34 0.34 0.68 0 0 Z " fill="#A9DBE4" transform="translate(634,98)"/>
<path d="M0 0 C0 3 0 3 -2.59 5.85 C-3.7 6.93 -4.81 8 -5.94 9.06 C-9.95 12.66 -9.95 12.66 -13 17 C-13.99 17 -14.98 17 -16 17 C-14.7 14.09 -13.36 12.15 -11 10.02 C-10.42 9.5 -9.84 8.97 -9.25 8.43 C-8.65 7.9 -8.05 7.36 -7.44 6.81 C-6.83 6.27 -6.23 5.72 -5.61 5.16 C-4.08 3.77 -2.54 2.38 -1 1 C-0.67 0.67 -0.34 0.34 0 0 Z " fill="#E2F7F8" transform="translate(458,394)"/>
<path d="M0 0 C0.74 0.08 1.49 0.16 2.25 0.25 C1.36 0.65 1.36 0.65 0.45 1.05 C-1.79 2.27 -3.21 3.57 -5 5.38 C-7.77 7.85 -9.46 8.65 -13.19 8.62 C-14.36 8.5 -15.54 8.38 -16.75 8.25 C-17.08 5.94 -17.41 3.63 -17.75 1.25 C-16.43 2.9 -15.11 4.55 -13.75 6.25 C-8.8 5.19 -8.8 5.19 -4.88 2.19 C-2.75 0.25 -2.75 0.25 0 0 Z " fill="#9CDFD2" transform="translate(722.75,810.75)"/>
<path d="M0 0 C2.03 6.09 -3.02 13.14 -5.75 18.62 C-6.5 20.09 -7.24 21.54 -8 23 C-9.17 19.48 -8.85 19.07 -7.31 15.88 C-6.94 15.09 -6.57 14.3 -6.19 13.49 C-5.6 12.26 -5.6 12.26 -5 11 C-4.27 9.36 -3.54 7.71 -2.81 6.06 C-1.91 4.02 -1 2 0 0 Z " fill="#A5DCE4" transform="translate(911,671)"/>
<path d="M0 0 C4.19 -0.03 8.37 -0.05 12.56 -0.06 C13.74 -0.07 14.93 -0.08 16.14 -0.09 C21.87 -0.1 27.36 -0.05 33 1 C33 1.33 33 1.66 33 2 C31.72 2.14 30.44 2.29 29.12 2.44 C26.74 2.71 25.16 2.92 23 4 C23 3.01 23 2.02 23 1 C15.41 1 7.82 1 0 1 C0 0.67 0 0.34 0 0 Z " fill="#8FC5D2" transform="translate(543,471)"/>
<path d="M0 0 C6.32 -0.49 6.32 -0.49 9.44 1.75 C11 4 11 4 11 8 C7.63 6.56 5.49 4.67 3 2 C2.01 2.33 1.02 2.66 0 3 C0 2.01 0 1.02 0 0 Z " fill="#EAF2EE" transform="translate(716,469)"/>
<path d="M0 0 C0 0.33 0 0.66 0 1 C-1.11 0.98 -2.23 0.96 -3.38 0.94 C-8.89 1.57 -11.97 5.13 -15.8 8.87 C-18 11 -18 11 -21 13 C-21 10 -21 10 -18.94 7.62 C-17.97 6.76 -17 5.89 -16 5 C-15.22 4.29 -15.22 4.29 -14.43 3.57 C-9.74 -0.29 -5.94 -0.61 0 0 Z " fill="#A0D6DE" transform="translate(474,386)"/>
<path d="M0 0 C0.66 0.33 1.32 0.66 2 1 C1.34 3.31 0.68 5.62 0 8 C-1.46 7.98 -1.46 7.98 -2.96 7.96 C-4.23 7.96 -5.5 7.95 -6.81 7.94 C-8.08 7.93 -9.34 7.91 -10.64 7.9 C-14 7.84 -14 7.84 -17 9 C-17 8.34 -17 7.68 -17 7 C-12.05 4.2 -7.38 5.23 -2 6 C-1.86 5.38 -1.71 4.76 -1.56 4.12 C-1 2 -1 2 0 0 Z " fill="#A8DDE4" transform="translate(247,309)"/>
<path d="M0 0 C1.49 0.99 1.49 0.99 3 2 C3 2.99 3 3.98 3 5 C3.99 4.67 4.98 4.34 6 4 C6.33 3.01 6.66 2.02 7 1 C8.32 1.33 9.64 1.66 11 2 C11 2.66 11 3.32 11 4 C13.97 4 16.94 4 20 4 C20 4.33 20 4.66 20 5 C19.15 4.99 18.29 4.98 17.41 4.96 C16.31 4.96 15.2 4.95 14.06 4.94 C12.41 4.92 12.41 4.92 10.72 4.9 C8.09 4.69 8.09 4.69 7 6 C5.33 6.04 3.67 6.04 2 6 C1.34 4.02 0.68 2.04 0 0 Z " fill="#9CD7A7" transform="translate(671,813)"/>
<path d="M0 0 C5.42 -0.37 5.42 -0.37 8.38 1.5 C8.91 2 9.45 2.49 10 3 C8.02 3 6.04 3 4 3 C4.06 4.28 4.12 5.56 4.19 6.88 C4.29 9.05 4.29 9.05 4 11 C2.51 11.99 2.51 11.99 1 13 C1.1 12.4 1.19 11.79 1.29 11.17 C1.4 10.37 1.51 9.57 1.62 8.75 C1.74 7.96 1.86 7.17 1.98 6.36 C2 3.68 1.37 2.27 0 0 Z " fill="#9CD7A5" transform="translate(209,807)"/>
<path d="M0 0 C1.65 0.33 3.3 0.66 5 1 C4.01 1.33 3.02 1.66 2 2 C2.06 3.09 2.12 4.19 2.19 5.31 C2 9 2 9 0.78 10.72 C-1.52 12.37 -2.88 12.31 -5.69 12.19 C-6.9 12.15 -6.9 12.15 -8.14 12.11 C-8.75 12.07 -9.37 12.04 -10 12 C-10.33 11.34 -10.66 10.68 -11 10 C-10.06 10.03 -10.06 10.03 -9.1 10.07 C-7.88 10.1 -7.88 10.1 -6.62 10.12 C-5.41 10.16 -5.41 10.16 -4.16 10.2 C-1.79 10.21 -1.79 10.21 0 8 C0.24 6.02 0.24 6.02 0.12 3.88 C0.08 2.6 0.04 1.32 0 0 Z " fill="#9CD7A4" transform="translate(470,806)"/>
<path d="M0 0 C-0.3 2.82 -1.07 4.09 -2.88 6.31 C-7.59 8.86 -11.84 7.83 -17 7 C-17 6.67 -17 6.34 -17 6 C-13.37 6 -9.74 6 -6 6 C-6 5.34 -6 4.68 -6 4 C-2.47 0 -2.47 0 0 0 Z " fill="#9ED79A" transform="translate(782,811)"/>
<path d="M0 0 C-0.02 1.11 -0.04 2.23 -0.06 3.38 C-0.26 6.83 -0.26 6.83 1 9 C0.01 8.67 -0.98 8.34 -2 8 C-2 6.35 -2 4.7 -2 3 C-2.99 3.5 -2.99 3.5 -4 4 C-6.67 4.13 -9.32 4.04 -12 4 C-4.29 0 -4.29 0 0 0 Z " fill="#9AD6A1" transform="translate(445,811)"/>
<path d="M0 0 C0.99 0 1.98 0 3 0 C3 2 3 2 1.68 3.54 C-3.24 8.03 -3.24 8.03 -7.44 7.88 C-8.28 7.59 -9.13 7.3 -10 7 C-9.67 6.01 -9.34 5.02 -9 4 C-6.52 4.99 -6.52 4.99 -4 6 C-3.67 5.01 -3.34 4.02 -3 3 C-2.34 3 -1.68 3 -1 3 C-0.67 2.01 -0.34 1.02 0 0 Z " fill="#99D7A1" transform="translate(346,806)"/>
<path d="M0 0 C6.68 -0.5 12.21 1.86 18 5 C13.93 6.36 11.19 4.95 7.31 3.56 C6.61 3.32 5.91 3.08 5.19 2.83 C3.45 2.23 1.73 1.61 0 1 C0 0.67 0 0.34 0 0 Z " fill="#E0F5F6" transform="translate(310,593)"/>
<path d="M0 0 C0.66 0.33 1.32 0.66 2 1 C-1.96 4.96 -5.92 8.92 -10 13 C-10 8.42 -7.08 6.18 -4 3 C-1.62 1.06 -1.62 1.06 0 0 Z " fill="#E2F9FB" transform="translate(282,275)"/>
<path d="M0 0 C0.99 0.33 1.98 0.66 3 1 C4.19 4.56 4.19 4.56 5 8 C3.35 8 1.7 8 0 8 C0 5.36 0 2.72 0 0 Z " fill="#99D7A7" transform="translate(573,807)"/>
<path d="M0 0 C0.66 0.33 1.32 0.66 2 1 C0.59 2.46 -0.83 3.92 -2.25 5.38 C-3.04 6.19 -3.83 7 -4.64 7.84 C-6.73 9.76 -8.4 10.92 -11 12 C-10.34 10.68 -9.68 9.36 -9 8 C-8.34 8 -7.68 8 -7 8 C-6.77 7.42 -6.55 6.85 -6.31 6.25 C-4.67 3.43 -2.6 1.92 0 0 Z " fill="#D3E6E6" transform="translate(732,376)"/>
<path d="M0 0 C0.41 0.45 0.82 0.91 1.25 1.38 C3.06 3.06 4.75 3.99 7 5 C7 5.66 7 6.32 7 7 C7.62 7.27 8.24 7.54 8.88 7.81 C11 9 11 9 13 12 C9.48 10.44 6.73 8.31 3.75 5.88 C2.86 5.15 1.97 4.43 1.05 3.68 C0.37 3.13 -0.3 2.57 -1 2 C-0.67 1.34 -0.34 0.68 0 0 Z " fill="#B4D8A4" transform="translate(236,841)"/>
<path d="M0 0 C1.32 0.66 2.64 1.32 4 2 C4 2.66 4 3.32 4 4 C1.1 5.93 -1.88 7.44 -5 9 C-3.35 6.03 -1.7 3.06 0 0 Z " fill="#9ED79A" transform="translate(360,809)"/>
<path d="M0 0 C0 0.33 0 0.66 0 1 C-0.6 1.11 -1.21 1.22 -1.83 1.33 C-7.94 2.51 -7.94 2.51 -13 6 C-13.33 5.01 -13.66 4.02 -14 3 C-8.99 -0.01 -5.67 -0.29 0 0 Z " fill="#CBDDE2" transform="translate(721,468)"/>
<path d="M0 0 C-0.33 0.66 -0.66 1.32 -1 2 C-3.29 2.41 -3.29 2.41 -6.06 2.62 C-6.98 2.7 -7.9 2.77 -8.85 2.85 C-9.91 2.93 -9.91 2.93 -11 3 C-10 0 -10 0 -7.75 -1.31 C-4.42 -2.15 -3 -1.54 0 0 Z " fill="#E0E5E2" transform="translate(571,387)"/>
<path d="M0 0 C-1.56 3.82 -3.96 6.26 -7 9 C-7.66 9 -8.32 9 -9 9 C-7.46 5.21 -4.45 0 0 0 Z " fill="#E8FAFC" transform="translate(607,207)"/>
<path d="M0 0 C4.32 3.34 7.17 6.33 10 11 C6.17 9.44 3.72 7.09 1 4 C0.19 1.69 0.19 1.69 0 0 Z " fill="#9ACDD5" transform="translate(693,608)"/>
<path d="M0 0 C-1.67 3.94 -4.23 6.79 -7 10 C-7.66 9.67 -8.32 9.34 -9 9 C-3.2 0 -3.2 0 0 0 Z " fill="#CEDBE4" transform="translate(423,562)"/>
<path d="M0 0 C9.59 1.56 9.59 1.56 13 6 C12.67 6.99 12.34 7.98 12 9 C11.32 8.42 10.64 7.85 9.94 7.25 C6.74 4.8 3.53 2.94 0 1 C0 0.67 0 0.34 0 0 Z " fill="#A0D3DD" transform="translate(768,288)"/>
<path d="M0 0 C0 3 0 3 -2.19 5.26 C-3.12 6.06 -4.04 6.86 -5 7.69 C-5.93 8.5 -6.86 9.3 -7.81 10.14 C-8.9 11.06 -8.9 11.06 -10 12 C-10 9 -10 9 -7.81 6.74 C-6.88 5.94 -5.96 5.14 -5 4.31 C-4.07 3.5 -3.14 2.7 -2.19 1.86 C-1.1 0.94 -1.1 0.94 0 0 Z " fill="#DDF0F7" transform="translate(448,620)"/>
<path d="M0 0 C1.65 0.99 3.3 1.98 5 3 C4.67 3.99 4.34 4.98 4 6 C2.56 5.55 1.12 5.09 -0.31 4.62 C-1.11 4.37 -1.91 4.11 -2.74 3.85 C-5 3 -5 3 -8 1 C-5.36 1.33 -2.72 1.66 0 2 C0 1.34 0 0.68 0 0 Z " fill="#D9E6E8" transform="translate(364,607)"/>
<path d="M0 0 C2 3 2 3 2 5 C3.32 5.33 4.64 5.66 6 6 C5.04 6.37 5.04 6.37 4.06 6.75 C1.81 7.82 1.81 7.82 1.25 10.12 C1.17 10.74 1.09 11.36 1 12 C0.02 7.95 -0.08 4.16 0 0 Z " fill="#CCDCD9" transform="translate(695,402)"/>
<path d="M0 0 C-0.66 1.32 -1.32 2.64 -2 4 C-2.66 4 -3.32 4 -4 4 C-4 7.63 -4 11.26 -4 15 C-4.66 14.67 -5.32 14.34 -6 14 C-6.63 6.02 -6.63 6.02 -4.12 1.94 C-2 0 -2 0 0 0 Z " fill="#E4F9FB" transform="translate(578,231)"/>
<path d="M0 0 C0.66 0 1.32 0 2 0 C2 0.66 2 1.32 2 2 C3.32 1.67 4.64 1.34 6 1 C3.93 3.8 2.86 4.03 -0.69 4.69 C-1.78 4.79 -2.87 4.89 -4 5 C-2.72 3.29 -1.38 1.63 0 0 Z " fill="#A3C6CC" transform="translate(480,408)"/>
<path d="M0 0 C0.66 0.33 1.32 0.66 2 1 C0.88 2.34 -0.24 3.67 -1.38 5 C-2 5.74 -2.63 6.49 -3.27 7.25 C-4.13 8.12 -4.13 8.12 -5 9 C-5.66 9 -6.32 9 -7 9 C-5.65 4.58 -3.74 2.66 0 0 Z " fill="#E5FAFB" transform="translate(229,318)"/>
<path d="M0 0 C0.66 0 1.32 0 2 0 C1.45 3.37 0.95 5.08 -1 8 C-3.62 8.19 -3.62 8.19 -6 8 C-4.68 7.67 -3.36 7.34 -2 7 C-1.86 6.22 -1.71 5.43 -1.56 4.62 C-1 2 -1 2 0 0 Z " fill="#9EDABA" transform="translate(278,809)"/>
<path d="M0 0 C0.66 0.33 1.32 0.66 2 1 C0.93 2.04 -0.16 3.05 -1.25 4.06 C-1.85 4.63 -2.46 5.2 -3.08 5.79 C-3.71 6.19 -4.35 6.59 -5 7 C-6.32 6.67 -7.64 6.34 -9 6 C-6.03 4.02 -3.06 2.04 0 0 Z " fill="#ACDEE6" transform="translate(290,141)"/>
<path d="M0 0 C0.33 0 0.66 0 1 0 C1.31 2.25 1.31 2.25 1 5 C-1.5 7.31 -1.5 7.31 -4 9 C-5.32 8.34 -6.64 7.68 -8 7 C-7.4 6.9 -6.8 6.79 -6.19 6.69 C-3.66 5.89 -2.65 5.04 -1 3 C-0.67 2.01 -0.34 1.02 0 0 Z " fill="#E2F8F9" transform="translate(738,642)"/>
<path d="M0 0 C5.57 5.14 5.57 5.14 6 9 C4.35 9 2.7 9 1 9 C1.66 8.67 2.32 8.34 3 8 C2.26 6.86 2.26 6.86 1.5 5.69 C0 3 0 3 0 0 Z " fill="#A7CAD0" transform="translate(441,413)"/>
<path d="M0 0 C0.66 0.33 1.32 0.66 2 1 C-0.64 3.64 -3.28 6.28 -6 9 C-6.33 8.01 -6.66 7.02 -7 6 C-6.34 6 -5.68 6 -5 6 C-4.73 5.38 -4.46 4.76 -4.19 4.12 C-3 2 -3 2 0 0 Z " fill="#9DD5DE" transform="translate(693,334)"/>
<path d="M0 0 C1.32 0.33 2.64 0.66 4 1 C4 1.66 4 2.32 4 3 C3.01 3 2.02 3 1 3 C0.67 4.65 0.34 6.3 0 8 C-0.66 8 -1.32 8 -2 8 C-1.34 5.36 -0.68 2.72 0 0 Z " fill="#9BD5A3" transform="translate(411,809)"/>
<path d="M0 0 C0.66 0 1.32 0 2 0 C2.33 1.65 2.66 3.3 3 5 C2.01 5 1.02 5 0 5 C-0.33 5.99 -0.66 6.98 -1 8 C-2.21 4.38 -1.54 3.36 0 0 Z " fill="#98D6A7" transform="translate(266,806)"/>
<path d="M0 0 C0.99 0 1.98 0 3 0 C3.08 0.62 3.17 1.24 3.25 1.88 C3.81 4.18 3.81 4.18 6.06 5.25 C6.7 5.5 7.34 5.75 8 6 C4.28 6.2 3.23 6.15 0 4 C0 2.68 0 1.36 0 0 Z " fill="#9ED59C" transform="translate(268,812)"/>
<path d="M0 0 C3.05 -0.29 5.96 -0.45 9 0 C11.56 2.5 11.56 2.5 13 5 C8.12 3.12 8.12 3.12 7 2 C4.67 1.63 2.34 1.3 0 1 C0 0.67 0 0.34 0 0 Z " fill="#D6F3F5" transform="translate(466,387)"/>
<path d="M0 0 C1.13 0.93 2.25 1.87 3.38 2.81 C4 3.33 4.63 3.86 5.27 4.39 C7 6 7 6 9 9 C5.56 7.47 2.78 5.55 0 3 C0 2.01 0 1.02 0 0 Z " fill="#A2DAE2" transform="translate(807,197)"/>
<path d="M0 0 C1.49 0.99 1.49 0.99 3 2 C2.67 3.32 2.34 4.64 2 6 C1.01 6 0.02 6 -1 6 C-0.67 4.02 -0.34 2.04 0 0 Z " fill="#559EC8" transform="translate(379,657)"/>
<path d="M0 0 C0.33 0.99 0.66 1.98 1 3 C-1.31 4.65 -3.62 6.3 -6 8 C-6.66 7.67 -7.32 7.34 -8 7 C-5.36 4.69 -2.72 2.38 0 0 Z " fill="#D6EAF3" transform="translate(476,595)"/>
<path d="M0 0 C-1.5 4.21 -4.29 5.74 -8 8 C-6.48 4.46 -4.25 0 0 0 Z " fill="#A1D6DF" transform="translate(685,343)"/>
</svg>
